<?xml version="1.0" standalone="no"?>
<!DOCTYPE svg PUBLIC "-//W3C//DTD SVG 1.1//EN" "http://www.w3.org/Graphics/SVG/1.1/DTD/svg11.dtd" >
<svg xmlns="http://www.w3.org/2000/svg" xmlns:xlink="http://www.w3.org/1999/xlink" version="1.1">
<metadata>
Created by FontForge 20190801 at Sun Feb  2 10:55:43 2020
 By www-data
copyright missing
</metadata>
<defs>
<font id="MetropolisBold" horiz-adv-x="774" >
  <font-face 
    font-family="MetropolisBold"
    font-weight="700"
    font-stretch="normal"
    units-per-em="1000"
    panose-1="0 0 8 0 0 0 0 0 0 0"
    ascent="795"
    descent="-205"
    x-height="517"
    cap-height="687"
    bbox="-187 -291 1206 978"
    underline-thickness="20"
    underline-position="-133"
    unicode-range="U+0020-2212"
  />
<missing-glyph horiz-adv-x="500" 
d="M410 795v-1000h-317v1000h317zM333 728h-165v-33h65v-37h-66v-33h166v33h-66v37h66v33zM267 599h-100v-104h166v34h-66v70zM233 565v-36h-33v36h33zM333 468h-166v-33h66v-37h-66v-33h100v70h66v33zM333 408h-33v-66h-133v-34h166v100zM333 286h-100v-56h34v23h33v-47
h-100v80h-33v-113h166v113zM333 113h-166v-113h166v113zM300 80v-47h-100v47h100zM333 -23h-166v-33h70l-70 -47v-33h166v33h-102l70 47h32v33z" />
    <glyph glyph-name=".notdef" horiz-adv-x="500" 
d="M410 795v-1000h-317v1000h317zM333 728h-165v-33h65v-37h-66v-33h166v33h-66v37h66v33zM267 599h-100v-104h166v34h-66v70zM233 565v-36h-33v36h33zM333 468h-166v-33h66v-37h-66v-33h100v70h66v33zM333 408h-33v-66h-133v-34h166v100zM333 286h-100v-56h34v23h33v-47
h-100v80h-33v-113h166v113zM333 113h-166v-113h166v113zM300 80v-47h-100v47h100zM333 -23h-166v-33h70l-70 -47v-33h166v33h-102l70 47h32v33z" />
    <glyph glyph-name=".null" horiz-adv-x="0" 
 />
    <glyph glyph-name="nonmarkingreturn" horiz-adv-x="333" 
 />
    <glyph glyph-name="space" unicode=" " horiz-adv-x="272" 
 />
    <glyph glyph-name="exclam" unicode="!" horiz-adv-x="297" 
d="M99 242l-34 445h166l-33 -445h-99zM149 -12q-39 0 -66 27t-27 66q0 36 27 62.5t66 26.5q36 0 62.5 -27t26.5 -62q0 -38 -26.5 -65.5t-62.5 -27.5z" />
    <glyph glyph-name="quotedbl" unicode="&#x22;" horiz-adv-x="503" 
d="M102 394q-46 162 -46 221q0 32 22.5 55t53.5 23t53.5 -23t22.5 -55q0 -63 -47 -221h-59zM342 394q-46 162 -46 221q0 32 22.5 55t53.5 23t53.5 -23t22.5 -55q0 -63 -47 -221h-59z" />
    <glyph glyph-name="numbersign" unicode="#" horiz-adv-x="689" 
d="M626 421h-97l-39 -156h96l-26 -105h-97l-40 -160h-108l40 160h-115l-40 -160h-107l40 160h-94l26 105h95l39 156h-97l26 105h97l41 161h107l-41 -161h115l41 161h108l-41 -161h96zM382 265l39 156h-115l-39 -156h115z" />
    <glyph glyph-name="dollar" unicode="$" horiz-adv-x="694" 
d="M630 206q0 -89 -58 -147t-162 -69v-64h-97v64q-149 15 -254 112l84 101q80 -69 170 -85v165q-113 28 -169 71.5t-56 130.5q0 88 62 146.5t163 66.5v61h97v-65q113 -16 202 -90l-78 -106q-61 48 -124 66v-160q111 -27 165.5 -70.5t54.5 -127.5zM237 500q0 -27 17.5 -43
t58.5 -29v144q-35 -6 -55.5 -25.5t-20.5 -46.5zM410 117q34 7 53 27t19 46t-16.5 41.5t-55.5 27.5v-142z" />
    <glyph glyph-name="percent" unicode="%" horiz-adv-x="874" 
d="M222 342q-75 0 -123 50t-48 125t48 126t124 51t123.5 -50.5t47.5 -125.5t-48 -125.5t-124 -50.5zM141 0l478 687h116l-478 -687h-116zM223 428q32 0 52.5 24.5t20.5 65.5q0 40 -21 64.5t-53 24.5t-52 -24.5t-20 -64.5t21 -65t52 -25zM652 -11q-76 0 -124 50.5t-48 125.5
t48.5 125.5t123.5 50.5q76 0 123.5 -51t47.5 -125q0 -75 -48.5 -125.5t-122.5 -50.5zM652 76q32 0 52.5 24.5t20.5 64.5t-21 65t-52 25q-33 0 -53.5 -24.5t-20.5 -65.5q0 -40 21 -64.5t53 -24.5z" />
    <glyph glyph-name="ampersand" unicode="&#x26;" horiz-adv-x="722" 
d="M675 38l-120 -54l-73 76q-89 -72 -200 -72q-101 0 -166 53.5t-65 145.5q0 67 35 113t114 81q-49 72 -49 140q0 72 57 123.5t138 51.5q84 0 139 -49.5t55 -124.5q0 -56 -36 -93t-121 -76q46 -54 106 -118q40 58 67 126l106 -50q-49 -98 -95 -159zM348 591q-30 0 -51 -20
t-21 -50q0 -38 44 -93q52 21 73 40.5t21 52.5q0 30 -18.5 50t-47.5 20zM300 99q50 0 105 42q-75 79 -141 156q-68 -41 -68 -100q0 -44 30 -71t74 -27z" />
    <glyph glyph-name="quotesingle" unicode="'" horiz-adv-x="263" 
d="M102 394q-46 162 -46 221q0 32 22.5 55t53.5 23t53.5 -23t22.5 -55q0 -63 -47 -221h-59z" />
    <glyph glyph-name="parenleft" unicode="(" horiz-adv-x="381" 
d="M271 -170q-107 77 -165.5 190t-58.5 245t58.5 245t165.5 190l74 -78q-79 -82 -116 -166t-37 -191q0 -106 37 -190.5t116 -165.5z" />
    <glyph glyph-name="parenright" unicode=")" horiz-adv-x="381" 
d="M110 -170l-74 79q79 81 115.5 165.5t36.5 190.5q0 107 -36.5 191t-115.5 166l74 78q107 -77 165.5 -190t58.5 -245t-58.5 -245t-165.5 -190z" />
    <glyph glyph-name="asterisk" unicode="*" horiz-adv-x="417" 
d="M209 345q-16 0 -27 10.5t-11 24.5q0 21 9.5 62.5t11.5 52.5q-11 -9 -41 -37.5t-47 -38.5q-12 -7 -27 -2t-23 18q-7 14 -3.5 28.5t15.5 21.5q17 10 57.5 22t51.5 17q-11 5 -51.5 17t-57.5 22q-12 7 -15.5 21.5t3.5 28.5q8 14 23 19t27 -3q17 -10 47 -38.5t41 -37.5
q-2 12 -12 53t-10 62q0 14 11.5 24.5t27.5 10.5t27 -10.5t11 -24.5q0 -21 -10 -62t-12 -53q11 9 41 37.5t47 38.5q12 7 27 2t23 -18q7 -14 4 -28.5t-15 -21.5q-18 -10 -58 -22t-52 -17q12 -5 52 -17t58 -22q12 -7 15.5 -22t-4.5 -28q-8 -14 -23 -19t-27 3q-17 10 -47 38.5
t-41 37.5q2 -12 12 -53t10 -62q0 -14 -11 -24.5t-27 -10.5z" />
    <glyph glyph-name="plus" unicode="+" horiz-adv-x="593" 
d="M538 393v-119h-178v-182h-126v182h-179v119h179v182h126v-182h178z" />
    <glyph glyph-name="comma" unicode="," horiz-adv-x="281" 
d="M125 -146l-52 40q46 42 61 94q-36 0 -62 26.5t-26 63.5q0 38 26.5 65t63.5 27q42 0 68.5 -35t26.5 -90q0 -89 -106 -191z" />
    <glyph glyph-name="hyphen" unicode="-" horiz-adv-x="362" 
d="M44 213v124h274v-124h-274z" />
    <glyph glyph-name="period" unicode="." horiz-adv-x="282" 
d="M142 -12q-39 0 -65.5 27t-26.5 66q0 36 27 62.5t65 26.5q36 0 62.5 -26.5t26.5 -62.5q0 -38 -26 -65.5t-63 -27.5z" />
    <glyph glyph-name="slash" unicode="/" horiz-adv-x="521" 
d="M11 -74l345 817h154l-345 -817h-154z" />
    <glyph glyph-name="zero" unicode="0" horiz-adv-x="715" 
d="M358 -12q-136 0 -222.5 99.5t-86.5 256.5q0 156 86.5 255.5t222.5 99.5q135 0 221.5 -99.5t86.5 -255.5q0 -157 -86.5 -256.5t-221.5 -99.5zM358 122q69 0 112.5 62.5t43.5 159.5t-43.5 159t-112.5 62q-70 0 -114 -62t-44 -159t44 -159.5t114 -62.5z" />
    <glyph glyph-name="one" unicode="1" horiz-adv-x="438" 
d="M209 0v518l-117 -73l-59 104l206 138h118v-687h-148z" />
    <glyph glyph-name="two" unicode="2" horiz-adv-x="626" 
d="M51 0v120l253 196q60 47 84 84t24 74q0 41 -30 66t-74 25q-88 0 -168 -91l-94 91q106 134 266 134q110 0 181 -61.5t71 -157.5q0 -71 -36 -128.5t-124 -121.5l-125 -97h291v-133h-519z" />
    <glyph glyph-name="three" unicode="3" horiz-adv-x="625" 
d="M311 -13q-88 0 -159 31.5t-117 84.5l87 98q76 -81 183 -81q55 0 87.5 23.5t32.5 60.5q0 80 -134 79h-79v126l79 -1q57 0 88.5 20t31.5 57t-32.5 59.5t-83.5 22.5q-84 0 -161 -80l-85 90q101 122 261 122q114 0 182.5 -52.5t68.5 -135.5q0 -58 -35 -99.5t-94 -58.5
q61 -14 102.5 -55.5t41.5 -105.5q0 -90 -73 -147.5t-192 -57.5z" />
    <glyph glyph-name="four" unicode="4" horiz-adv-x="668" 
d="M388 0v140h-335l-14 114l318 433h179v-423h91v-124h-91v-140h-148zM194 264h194v266z" />
    <glyph glyph-name="five" unicode="5" horiz-adv-x="631" 
d="M308 -13q-159 0 -265 106l86 104q86 -81 181 -81q56 0 90 30t34 75t-33.5 72.5t-89.5 27.5q-75 0 -134 -45l-99 40l10 371h456v-133h-319l-5 -152q60 42 135 42q95 0 161 -58.5t66 -159.5q0 -109 -75 -174t-199 -65z" />
    <glyph glyph-name="six" unicode="6" horiz-adv-x="650" 
d="M373 444q98 0 165 -59.5t67 -158.5q0 -105 -74.5 -171.5t-188.5 -66.5q-145 0 -218.5 93.5t-73.5 250.5q0 162 87.5 264.5t228.5 102.5q118 0 210 -74l-70 -112q-66 56 -140 56q-66 0 -109 -51t-53 -139q67 65 169 65zM334 113q54 0 87 31.5t33 74.5q0 48 -35.5 76.5
t-87.5 28.5q-42 0 -74.5 -21t-48.5 -58q20 -132 126 -132z" />
    <glyph glyph-name="seven" unicode="7" horiz-adv-x="595" 
d="M109 0l273 554h-340v133h511v-111l-277 -576h-167z" />
    <glyph glyph-name="eight" unicode="8" horiz-adv-x="648" 
d="M324 -12q-118 0 -197 53t-79 143q0 59 36.5 103.5t98.5 67.5q-117 50 -117 157q0 87 75.5 137t182.5 50t182.5 -51t75.5 -136q0 -106 -117 -157q63 -25 99 -69t36 -102q0 -91 -79 -143.5t-197 -52.5zM324 406q44 3 78 27t34 60q0 35 -31.5 58.5t-80.5 23.5t-80.5 -23.5
t-31.5 -58.5q0 -37 33.5 -60.5t78.5 -26.5zM324 112q55 0 91 24.5t36 63.5q0 38 -39.5 63t-87.5 27q-48 -2 -87.5 -27t-39.5 -63q0 -39 35.5 -63.5t91.5 -24.5z" />
    <glyph glyph-name="nine" unicode="9" horiz-adv-x="650" 
d="M308 699q145 0 218.5 -93.5t73.5 -250.5q0 -162 -87.5 -264.5t-228.5 -102.5q-118 0 -210 74l70 112q66 -56 140 -56q66 0 109 51t53 139q-67 -65 -169 -65q-98 0 -165 59.5t-67 158.5q0 105 74.5 171.5t188.5 66.5zM319 363q42 0 74.5 21t48.5 58q-20 132 -126 132
q-54 0 -87 -31.5t-33 -74.5q0 -48 35.5 -76.5t87.5 -28.5z" />
    <glyph glyph-name="colon" unicode=":" horiz-adv-x="288" 
d="M146 349q-39 0 -66 27t-27 66q0 36 27 62.5t66 26.5q36 0 62.5 -26.5t26.5 -62.5q0 -38 -26 -65.5t-63 -27.5zM146 -12q-39 0 -66 27t-27 66q0 36 27 62.5t66 26.5q36 0 62.5 -26.5t26.5 -62.5q0 -38 -26 -65.5t-63 -27.5z" />
    <glyph glyph-name="semicolon" unicode=";" horiz-adv-x="287" 
d="M144 349q-39 0 -66 27t-27 66q0 36 27 62.5t66 26.5q36 0 62.5 -26.5t26.5 -62.5q0 -38 -26 -65.5t-63 -27.5zM129 -146l-52 40q46 42 61 94q-36 0 -62 26.5t-26 63.5q0 38 26.5 65t63.5 27q42 0 68.5 -35t26.5 -90q0 -89 -106 -191z" />
    <glyph glyph-name="less" unicode="&#x3c;" horiz-adv-x="594" 
d="M522 82l-467 204v115l467 204v-118l-351 -144l351 -142v-119z" />
    <glyph glyph-name="equal" unicode="=" horiz-adv-x="657" 
d="M87 392v119h483v-119h-483zM87 164v119h483v-119h-483z" />
    <glyph glyph-name="greater" unicode="&#x3e;" horiz-adv-x="594" 
d="M72 82v119l351 142l-351 144v118l467 -204v-115z" />
    <glyph glyph-name="question" unicode="?" horiz-adv-x="531" 
d="M184 236v164q70 3 114 28t44 61q0 32 -28 55t-72 23q-70 0 -127 -62l-84 86q96 108 235 108q100 0 162.5 -55.5t62.5 -140.5q0 -68 -49.5 -122.5t-127.5 -72.5v-72h-130zM249 -12q-39 0 -66 27.5t-27 65.5q0 36 27 62.5t66 26.5q36 0 62.5 -26.5t26.5 -62.5
q0 -38 -26 -65.5t-63 -27.5z" />
    <glyph glyph-name="at" unicode="@" horiz-adv-x="904" 
d="M438 -116q-161 0 -271.5 109.5t-110.5 266.5q0 170 124 293t296 123q157 0 265 -103t108 -245q0 -121 -61.5 -187.5t-140.5 -66.5q-99 0 -124 79q-61 -78 -148 -78q-75 0 -121.5 50.5t-46.5 130.5q0 101 68 175.5t156 74.5q89 0 132 -72l12 58l120 -9q-8 -43 -17.5 -90.5
t-15 -73t-10 -51t-6.5 -40.5t-2 -25q0 -26 14.5 -40.5t39.5 -14.5q44 0 76.5 46.5t32.5 133.5q0 129 -95 218.5t-238 89.5q-156 0 -266.5 -111t-110.5 -264q0 -142 98.5 -240t244.5 -98q113 0 214 61l20 -31q-108 -69 -236 -69zM418 176q48 0 81 37t38 94q5 45 -16 71.5
t-63 26.5q-53 0 -89.5 -41.5t-36.5 -97.5q0 -42 23.5 -66t62.5 -24z" />
    <glyph glyph-name="A" unicode="A" 
d="M584 0l-48 118h-298l-48 -118h-165l279 687h166l279 -687h-165zM285 233h204l-102 250z" />
    <glyph glyph-name="B" unicode="B" horiz-adv-x="693" 
d="M71 0v687h348q92 0 150.5 -48.5t58.5 -123.5q0 -102 -97 -153q60 -27 93.5 -73t33.5 -103q0 -82 -63.5 -134t-162.5 -52h-361zM218 410h165q40 0 66.5 21.5t26.5 54.5q0 32 -26.5 53.5t-66.5 21.5h-165v-151zM218 126h187q44 0 72.5 23.5t28.5 60.5t-28.5 60.5
t-72.5 23.5h-187v-168z" />
    <glyph glyph-name="C" unicode="C" horiz-adv-x="694" 
d="M401 -12q-148 0 -256.5 105.5t-108.5 250.5t108 250t257 105q157 0 266 -115l-107 -96q-65 77 -159 77q-86 0 -149.5 -66t-63.5 -155q0 -90 63.5 -156t149.5 -66q93 0 160 77l106 -96q-110 -115 -266 -115z" />
    <glyph glyph-name="D" unicode="D" horiz-adv-x="748" 
d="M71 0v687h246q173 0 284 -96t111 -247t-111 -247.5t-284 -96.5h-246zM218 134h118q99 0 161.5 59t62.5 151t-62.5 150.5t-161.5 58.5h-118v-419z" />
    <glyph glyph-name="E" unicode="E" horiz-adv-x="654" 
d="M600 554h-381v-137h345v-133h-345v-151h381v-133h-529v687h529v-133z" />
    <glyph glyph-name="F" unicode="F" horiz-adv-x="639" 
d="M600 554h-381v-149h345v-133h-345v-272h-148v687h529v-133z" />
    <glyph glyph-name="G" unicode="G" horiz-adv-x="728" 
d="M378 271v115h303v-283q-51 -54 -125 -84.5t-152 -30.5q-151 0 -259.5 105t-108.5 251q0 145 108.5 250t259.5 105q78 0 152 -30.5t125 -84.5l-107 -96q-30 35 -76.5 56t-93.5 21q-88 0 -152 -65.5t-64 -155.5q0 -91 64 -156.5t152 -65.5q71 0 133 43v106h-159z" />
    <glyph glyph-name="H" unicode="H" horiz-adv-x="749" 
d="M531 687h148v-687h-148v284h-313v-284h-147v687h147v-270h313v270z" />
    <glyph glyph-name="I" unicode="I" horiz-adv-x="289" 
d="M71 0v687h147v-687h-147z" />
    <glyph glyph-name="J" unicode="J" horiz-adv-x="547" 
d="M251 -12q-66 0 -131 32t-99 82l98 96q16 -34 48.5 -55t67.5 -21q46 0 75.5 32t29.5 82v451h147v-463q0 -104 -66.5 -170t-169.5 -66z" />
    <glyph glyph-name="K" unicode="K" horiz-adv-x="719" 
d="M71 0v687h147v-315l278 315h179l-268 -298l287 -389h-179l-211 284l-86 -92v-192h-147z" />
    <glyph glyph-name="L" unicode="L" horiz-adv-x="592" 
d="M218 133h342v-133h-489v687h147v-554z" />
    <glyph glyph-name="M" unicode="M" horiz-adv-x="862" 
d="M71 0v687h147l213 -388l212 388h148v-687h-148v428l-212 -388l-213 388v-428h-147z" />
    <glyph glyph-name="N" unicode="N" horiz-adv-x="768" 
d="M71 0v687h147l332 -444v444h147v-687h-147l-332 444v-444h-147z" />
    <glyph glyph-name="O" unicode="O" horiz-adv-x="802" 
d="M401 -12q-148 0 -256.5 105.5t-108.5 250.5t108 250t257 105t257 -105t108 -250t-108.5 -250.5t-256.5 -105.5zM401 122q87 0 150 66t63 156q0 89 -63 155t-150 66q-86 0 -149.5 -66t-63.5 -155q0 -90 63.5 -156t149.5 -66z" />
    <glyph glyph-name="P" unicode="P" horiz-adv-x="672" 
d="M71 0v687h309q112 0 185.5 -65t73.5 -167t-73.5 -167t-185.5 -65h-162v-223h-147zM218 358h147q54 0 88 26.5t34 70.5t-34 70.5t-88 26.5h-147v-194z" />
    <glyph glyph-name="Q" unicode="Q" horiz-adv-x="806" 
d="M766 344q0 -111 -68 -203l62 -54l-75 -87l-68 59q-98 -71 -216 -71q-148 0 -256.5 105.5t-108.5 250.5t108 250t257 105t257 -105t108 -250zM401 122q56 0 107 31l-82 72l75 87l86 -75q27 51 27 107q0 89 -63 155t-150 66q-86 0 -149.5 -66t-63.5 -155q0 -90 63.5 -156
t149.5 -66z" />
    <glyph glyph-name="R" unicode="R" horiz-adv-x="682" 
d="M639 455q0 -80 -47 -138.5t-125 -81.5l165 -235h-168l-157 223h-89v-223h-147v687h309q112 0 185.5 -65t73.5 -167zM218 552v-194h147q54 0 88 26.5t34 70.5t-34 70.5t-88 26.5h-147z" />
    <glyph glyph-name="S" unicode="S" horiz-adv-x="635" 
d="M333 -12q-182 0 -305 114l85 101q104 -90 226 -90q54 0 83 21.5t29 55.5q0 35 -30.5 52t-114.5 36q-61 14 -101 28t-76 37.5t-53.5 58.5t-17.5 83q0 95 70.5 154.5t183.5 59.5q158 0 269 -95l-77 -106q-95 76 -196 76q-46 0 -73.5 -21t-27.5 -53q0 -36 31 -53.5
t116 -36.5q124 -28 185 -71.5t61 -132.5q0 -99 -71 -158.5t-196 -59.5z" />
    <glyph glyph-name="T" unicode="T" horiz-adv-x="639" 
d="M246 0v554h-214v133h576v-133h-215v-554h-147z" />
    <glyph glyph-name="U" unicode="U" horiz-adv-x="734" 
d="M367 -12q-137 0 -224 86.5t-87 222.5v390h148v-384q0 -80 45.5 -130.5t117.5 -50.5t117.5 50.5t45.5 130.5v384h148v-390q0 -136 -87 -222.5t-224 -86.5z" />
    <glyph glyph-name="V" unicode="V" horiz-adv-x="777" 
d="M585 687h166l-280 -687h-165l-280 687h166l197 -484z" />
    <glyph glyph-name="W" unicode="W" horiz-adv-x="1093" 
d="M236 0l-209 687h161l126 -461l153 461h160l152 -461l126 461h161l-208 -687h-148l-163 472l-163 -472h-148z" />
    <glyph glyph-name="X" unicode="X" horiz-adv-x="731" 
d="M704 687l-252 -342l252 -345h-175l-164 225l-166 -225h-171l251 342l-251 345h174l165 -225l165 225h172z" />
    <glyph glyph-name="Y" unicode="Y" horiz-adv-x="732" 
d="M292 0v248l-269 439h172l171 -301l178 301h165l-268 -439v-248h-149z" />
    <glyph glyph-name="Z" unicode="Z" horiz-adv-x="657" 
d="M45 0l-1 112l361 442h-353v133h556v-112l-361 -442h365v-133h-567z" />
    <glyph glyph-name="bracketleft" unicode="[" horiz-adv-x="400" 
d="M82 -142v849h272v-95h-157v-659h157v-95h-272z" />
    <glyph glyph-name="backslash" unicode="\" horiz-adv-x="521" 
d="M356 -74l-345 817h154l345 -817h-154z" />
    <glyph glyph-name="bracketright" unicode="]" horiz-adv-x="400" 
d="M47 -142v95h157v659h-157v95h271v-849h-271z" />
    <glyph glyph-name="asciicircum" unicode="^" horiz-adv-x="504" 
d="M51 413l151 274h101l149 -274h-104l-97 184l-97 -184h-103z" />
    <glyph glyph-name="underscore" unicode="_" horiz-adv-x="676" 
d="M40 -152v85h596v-85h-596z" />
    <glyph glyph-name="grave" unicode="`" horiz-adv-x="282" 
d="M164 575l-148 132l131 24l116 -156h-99z" />
    <glyph glyph-name="a" unicode="a" horiz-adv-x="555" 
d="M282 529q102 0 165 -60t63 -160v-309h-141v52q-58 -64 -153 -64q-84 0 -139 46t-55 119q0 75 61.5 123.5t152.5 48.5q67 0 133 -27v11q0 45 -30 74t-90 29q-62 0 -134 -37l-49 97q112 57 216 57zM249 89q44 0 78 19.5t42 54.5v47q-51 20 -112 20q-40 0 -68 -21t-28 -52
t25 -49.5t63 -18.5z" />
    <glyph glyph-name="b" unicode="b" horiz-adv-x="648" 
d="M382 529q104 0 170.5 -76t66.5 -194q0 -119 -66.5 -195t-170.5 -76q-108 0 -174 85v-73h-146v699h146v-255q66 85 174 85zM340 111q60 0 98.5 41.5t38.5 106.5q0 64 -38.5 105.5t-98.5 41.5q-58 0 -95 -41t-37 -106t37 -106.5t95 -41.5z" />
    <glyph glyph-name="c" unicode="c" horiz-adv-x="530" 
d="M306 -12q-114 0 -197.5 80.5t-83.5 190.5t83.5 190t199.5 80q122 0 202 -88l-97 -83q-41 48 -106 48q-57 0 -98.5 -43.5t-41.5 -102.5q0 -61 41.5 -105t98.5 -44q66 0 109 50l97 -82q-81 -91 -207 -91z" />
    <glyph glyph-name="d" unicode="d" horiz-adv-x="648" 
d="M440 699h146v-699h-146v73q-66 -85 -174 -85q-104 0 -170.5 76t-66.5 195q0 118 66.5 194t170.5 76q108 0 174 -85v255zM308 111q58 0 95 41.5t37 106.5t-37 106t-95 41q-60 0 -98.5 -41.5t-38.5 -105.5q0 -65 38.5 -106.5t98.5 -41.5z" />
    <glyph glyph-name="e" unicode="e" horiz-adv-x="576" 
d="M298 101q35 0 72 14t62 37l82 -84q-34 -36 -93.5 -58t-117.5 -22q-117 0 -197 77t-80 195q0 116 77.5 192.5t191.5 76.5q121 0 190.5 -82.5t69.5 -226.5h-390q10 -54 45.5 -86.5t87.5 -32.5zM296 416q-48 0 -83 -29.5t-47 -79.5h249q-9 50 -40 79.5t-79 29.5z" />
    <glyph glyph-name="f" unicode="f" horiz-adv-x="379" 
d="M238 545v-28h112v-118h-112v-399h-141v399h-71v118h71v45q0 70 43.5 114t112.5 44q68 0 118 -45l-35 -89q-17 17 -50 17q-20 0 -34 -16.5t-14 -41.5z" />
    <glyph glyph-name="g" unicode="g" horiz-adv-x="633" 
d="M429 517h146v-462q0 -100 -78 -163.5t-200 -63.5q-138 0 -228 69l51 103q56 -49 155 -49q70 0 112 30t42 80v58q-65 -81 -171 -81q-99 0 -164.5 69.5t-65.5 176.5t65.5 176t164.5 69q51 0 98 -22.5t73 -59.5v70zM304 161q55 0 90 34.5t35 88.5t-35 88t-90 34t-90 -34
t-35 -88t35 -88.5t90 -34.5z" />
    <glyph glyph-name="h" unicode="h" horiz-adv-x="601" 
d="M363 529q85 0 138.5 -56t53.5 -144v-329h-140v298q0 48 -27.5 78t-71.5 30q-46 0 -77 -29t-31 -71v-306h-146v699h146v-245q24 35 65 55t90 20z" />
    <glyph glyph-name="i" unicode="i" horiz-adv-x="259" 
d="M130 588q-34 0 -57 23.5t-23 56.5q0 31 23.5 54.5t56.5 23.5q32 0 55.5 -23.5t23.5 -54.5q0 -33 -23.5 -56.5t-55.5 -23.5zM56 0v517h146v-517h-146z" />
    <glyph glyph-name="j" unicode="j" horiz-adv-x="267" 
d="M132 588q-33 0 -56.5 23.5t-23.5 56.5q0 31 23.5 54.5t56.5 23.5t56 -23.5t23 -54.5q0 -33 -23 -56.5t-56 -23.5zM46 -178q-61 0 -103 21l15 108q25 -9 54 -9q22 0 35.5 16t13.5 42v517h146v-532q0 -71 -45.5 -117t-115.5 -46z" />
    <glyph glyph-name="k" unicode="k" horiz-adv-x="588" 
d="M62 0v699h146v-406l193 224h168l-202 -229l199 -288h-167l-129 194l-62 -68v-126h-146z" />
    <glyph glyph-name="l" unicode="l" horiz-adv-x="270" 
d="M62 0v699h146v-699h-146z" />
    <glyph glyph-name="m" unicode="m" horiz-adv-x="912" 
d="M674 529q82 0 136.5 -56.5t54.5 -143.5v-328h-140v303q0 45 -25.5 73.5t-65.5 28.5q-44 0 -72 -26.5t-28 -67.5v-311h-141v303q0 45 -25.5 73.5t-65.5 28.5q-44 0 -72 -26.5t-28 -67.5v-311h-146v516h146v-68q19 37 56 58.5t85 21.5q51 0 93.5 -23.5t67.5 -65.5
q23 42 68 65.5t102 23.5z" />
    <glyph glyph-name="n" unicode="n" horiz-adv-x="596" 
d="M358 529q84 0 137.5 -56t53.5 -144v-329h-140v298q0 48 -27 78t-71 30q-46 0 -77.5 -29t-31.5 -71v-306h-146v517h146v-64q24 35 65 55.5t91 20.5z" />
    <glyph glyph-name="o" unicode="o" horiz-adv-x="614" 
d="M307 -12q-116 0 -199 79.5t-83 191.5t83 191t199 79t199 -79t83 -191t-83 -191.5t-199 -79.5zM307 111q58 0 100 43.5t42 104.5t-41.5 104t-100.5 43t-100.5 -43t-41.5 -104t42 -104.5t100 -43.5z" />
    <glyph glyph-name="p" unicode="p" horiz-adv-x="648" 
d="M382 529q104 0 170.5 -76t66.5 -194q0 -119 -66.5 -195t-170.5 -76q-108 0 -174 85v-245h-146v689h146v-73q66 85 174 85zM340 111q60 0 98.5 41.5t38.5 106.5q0 64 -38.5 105.5t-98.5 41.5q-58 0 -95 -41t-37 -106t37 -106.5t95 -41.5z" />
    <glyph glyph-name="q" unicode="q" horiz-adv-x="648" 
d="M440 517h146v-689h-146v245q-66 -85 -174 -85q-104 0 -170.5 76t-66.5 195q0 118 66.5 194t170.5 76q108 0 174 -85v73zM308 111q58 0 95 41.5t37 106.5t-37 106t-95 41q-60 0 -98.5 -41.5t-38.5 -105.5q0 -65 38.5 -106.5t98.5 -41.5z" />
    <glyph glyph-name="r" unicode="r" horiz-adv-x="401" 
d="M202 420q26 51 72.5 80t104.5 29v-123q-81 0 -129 -43t-48 -116v-247h-146v517h146v-97z" />
    <glyph glyph-name="s" unicode="s" horiz-adv-x="491" 
d="M254 -12q-135 0 -233 78l59 92q90 -63 177 -63q75 0 75 48q0 23 -24.5 36t-73.5 25q-47 11 -76 21.5t-57.5 28t-42 44t-13.5 63.5q0 74 55.5 121t146.5 47q106 0 204 -64l-54 -94q-81 53 -150 53q-30 0 -49.5 -13.5t-19.5 -34.5q0 -19 19.5 -29t78.5 -26q43 -11 69 -20.5
t57.5 -28t47 -48t15.5 -69.5q0 -76 -57.5 -121.5t-153.5 -45.5z" />
    <glyph glyph-name="t" unicode="t" horiz-adv-x="395" 
d="M334 128l35 -95q-50 -45 -118 -45q-69 0 -112.5 44t-43.5 114v253h-71v118h71v142h141v-142h112v-118h-112v-230q0 -25 14 -41.5t35 -16.5q32 0 49 17z" />
    <glyph glyph-name="u" unicode="u" horiz-adv-x="595" 
d="M394 517h145v-517h-145v64q-24 -35 -65 -55.5t-91 -20.5q-85 0 -138.5 56t-53.5 144v329h141v-298q0 -48 27 -78t71 -30q46 0 77.5 29t31.5 71v306z" />
    <glyph glyph-name="v" unicode="v" horiz-adv-x="608" 
d="M238 0l-224 517h153l139 -349l136 349h152l-221 -517h-135z" />
    <glyph glyph-name="w" unicode="w" horiz-adv-x="839" 
d="M192 0l-176 517h143l98 -322l102 322h121l103 -322l97 322h143l-175 -517h-131l-97 325l-97 -325h-131z" />
    <glyph glyph-name="x" unicode="x" horiz-adv-x="570" 
d="M553 0h-157l-112 156l-113 -156h-154l190 263l-182 254h158l103 -144l104 144h154l-181 -251z" />
    <glyph glyph-name="y" unicode="y" horiz-adv-x="596" 
d="M183 -180q-70 0 -129 32l31 100q39 -23 68 -23q44 0 65 36l14 30l-215 522h151l136 -363l128 363h149l-211 -543q-61 -154 -187 -154z" />
    <glyph glyph-name="z" unicode="z" horiz-adv-x="526" 
d="M36 0v103l260 290h-253v124h443l-1 -103l-259 -290h262v-124h-452z" />
    <glyph glyph-name="braceleft" unicode="{" horiz-adv-x="417" 
d="M362 -166q-127 10 -180 52.5t-53 128.5l2 121q0 46 -22.5 66t-73.5 20v88q52 0 74 20t22 66l-2 120q0 86 53.5 128.5t179.5 52.5l12 -89q-81 -10 -105.5 -30t-24.5 -73l1 -126q0 -87 -78 -113q78 -26 78 -114l-1 -125q0 -53 25 -73.5t105 -30.5z" />
    <glyph glyph-name="bar" unicode="|" horiz-adv-x="287" 
d="M93 -74v817h101v-817h-101z" />
    <glyph glyph-name="braceright" unicode="}" horiz-adv-x="417" 
d="M55 -166l-12 89q80 10 105 30.5t25 73.5l-1 125q0 88 78 114q-78 26 -78 113l1 126q0 53 -24.5 73t-105.5 30l12 89q126 -10 179.5 -52.5t53.5 -128.5l-2 -120q0 -46 22 -66t74 -20v-88q-51 0 -73.5 -20t-22.5 -66l2 -121q0 -86 -53 -128.5t-180 -52.5z" />
    <glyph glyph-name="asciitilde" unicode="~" horiz-adv-x="479" 
d="M307 294q-32 0 -75 25.5t-56 25.5q-33 0 -43 -52l-72 10q8 67 35 99.5t76 32.5q31 0 74.5 -25.5t56.5 -25.5q33 0 43 53l72 -11q-15 -132 -111 -132z" />
    <glyph glyph-name="exclamdown" unicode="&#xa1;" horiz-adv-x="298" 
d="M148 529q39 0 66 -27t27 -66q0 -36 -27 -62.5t-66 -26.5q-36 0 -62.5 26.5t-26.5 62.5q0 38 26 65.5t63 27.5zM198 275l33 -445h-165l33 445h99z" />
    <glyph glyph-name="cent" unicode="&#xa2;" horiz-adv-x="612" 
d="M554 79q-63 -71 -158 -87v-66h-98v66q-98 17 -165 93.5t-67 173.5t67 172.5t165 92.5v65h98v-64q92 -15 155 -84l-97 -83q-24 27 -58 39v-277q35 12 61 41zM208 260q0 -46 25 -84t65 -55v275q-40 -17 -65 -54t-25 -82z" />
    <glyph glyph-name="sterling" unicode="&#xa3;" horiz-adv-x="704" 
d="M298 115h342v-115h-576v61l86 54v139h-69v79h69v130q0 104 66.5 170t170.5 66q69 0 134 -32t96 -82l-98 -96q-13 34 -46 55t-71 21q-45 0 -74.5 -32t-29.5 -82v-118h163v-79h-163v-139z" />
    <glyph glyph-name="yen" unicode="&#xa5;" horiz-adv-x="796" 
d="M741 687l-223 -365h130v-79h-175v-64h175v-79h-175v-100h-149v100h-172v79h172v64h-172v79h127l-224 365h172l171 -301l178 301h165z" />
    <glyph glyph-name="dieresis" unicode="&#xa8;" horiz-adv-x="409" 
d="M99 584q-30 0 -50.5 20.5t-20.5 49.5t20.5 49.5t50.5 20.5q29 0 49.5 -21t20.5 -49t-20.5 -49t-49.5 -21zM311 584q-30 0 -50.5 20.5t-20.5 49.5t20.5 49.5t50.5 20.5q29 0 49.5 -21t20.5 -49t-20.5 -49t-49.5 -21z" />
    <glyph glyph-name="copyright" unicode="&#xa9;" horiz-adv-x="906" 
d="M453 -116q-164 0 -280.5 116t-116.5 280q0 163 116.5 279t280.5 116t280 -116t116 -279q0 -164 -116 -280t-280 -116zM453 -76q147 0 251.5 104.5t104.5 251.5q0 146 -104.5 250.5t-251.5 104.5t-251.5 -104.5t-104.5 -250.5q0 -147 104.5 -251.5t251.5 -104.5zM459 9
q-114 0 -197.5 80.5t-83.5 190.5t83.5 190t199.5 80q122 0 202 -88l-97 -83q-41 48 -107 48q-57 0 -98 -43.5t-41 -102.5q0 -61 41 -105t99 -44q66 0 109 50l97 -82q-83 -91 -207 -91z" />
    <glyph glyph-name="guillemotleft" unicode="&#xab;" horiz-adv-x="592" 
d="M200 50l-165 204l165 202l115 -24l-142 -178l142 -179zM434 50l-165 204l165 202l115 -24l-142 -178l142 -179z" />
    <glyph glyph-name="registered" unicode="&#xae;" horiz-adv-x="611" 
d="M306 675q101 0 173.5 -72t72.5 -173t-72.5 -173.5t-173.5 -72.5q-102 0 -174.5 72.5t-72.5 173.5t72.5 173t174.5 72zM306 224q86 0 146 60t60 146q0 85 -60.5 145t-145.5 60q-86 0 -146.5 -60t-60.5 -145t60.5 -145.5t146.5 -60.5zM437 476q0 -68 -65 -95l70 -101h-87
l-64 91h-27v-91h-81v300h136q51 0 84.5 -29t33.5 -75zM264 498v-46h52q14 0 22.5 7t8.5 17t-8.5 16t-22.5 6h-52z" />
    <glyph glyph-name="macron" unicode="&#xaf;" horiz-adv-x="427" 
d="M41 581v86h345v-86h-345z" />
    <glyph glyph-name="degree" unicode="&#xb0;" horiz-adv-x="420" 
d="M210 405q-65 0 -107 41.5t-42 105.5t42 105.5t107 41.5t107 -41.5t42 -105.5t-42 -105.5t-107 -41.5zM210 485q28 0 46.5 19t18.5 48t-18.5 48t-46.5 19t-46.5 -19t-18.5 -48t18.5 -48t46.5 -19z" />
    <glyph glyph-name="acute" unicode="&#xb4;" horiz-adv-x="283" 
d="M19 575l116 156l131 -24l-148 -132h-99z" />
    <glyph glyph-name="paragraph" unicode="&#xb6;" horiz-adv-x="718" 
d="M291 -50v332q-110 0 -175 55t-65 146q0 90 63.5 146t163.5 56h347v-735h-107v635h-120v-635h-107z" />
    <glyph glyph-name="periodcentered" unicode="&#xb7;" horiz-adv-x="264" 
d="M132 195q-35 0 -58.5 23.5t-23.5 58.5q0 34 24 57.5t58 23.5t58 -23.5t24 -57.5q0 -35 -24 -58.5t-58 -23.5z" />
    <glyph glyph-name="cedilla" unicode="&#xb8;" horiz-adv-x="251" 
d="M150 -43q32 0 53 -19t21 -49q0 -39 -30.5 -62.5t-77.5 -23.5q-55 0 -95 29l27 58q28 -23 60 -23q18 0 30 8.5t12 21.5q0 27 -32 27q-18 0 -30 -9l-22 21l32 75h74l-23 -54h1z" />
    <glyph glyph-name="guillemotright" unicode="&#xbb;" horiz-adv-x="592" 
d="M158 50l-115 25l142 179l-142 178l115 24l165 -202zM392 50l-115 25l142 179l-142 178l115 24l165 -202z" />
    <glyph glyph-name="questiondown" unicode="&#xbf;" horiz-adv-x="531" 
d="M282 529q39 0 65.5 -27t26.5 -66q0 -36 -27 -62.5t-65 -26.5q-36 0 -62.5 26.5t-26.5 62.5q0 38 26 65.5t63 27.5zM346 281v-164q-69 -3 -113 -28t-44 -61q0 -32 28 -55t72 -23q70 0 127 62l84 -86q-96 -108 -235 -108q-100 0 -162.5 55.5t-62.5 140.5q0 68 49.5 122.5
t126.5 72.5v72h130z" />
    <glyph glyph-name="Agrave" unicode="&#xc0;" 
d="M439 745h-99l-148 132l131 24zM584 0l-48 118h-298l-48 -118h-165l279 687h166l279 -687h-165zM285 233h204l-102 250z" />
    <glyph glyph-name="Aacute" unicode="&#xc1;" 
d="M583 877l-148 -132h-99l116 156zM584 0l-48 118h-298l-48 -118h-165l279 687h166l279 -687h-165zM285 233h204l-102 250z" />
    <glyph glyph-name="Acircumflex" unicode="&#xc2;" 
d="M388 819l-75 -74h-90l104 147h121l107 -147h-91zM584 0l-48 118h-298l-48 -118h-165l279 687h166l279 -687h-165zM285 233h204l-102 250z" />
    <glyph glyph-name="Atilde" unicode="&#xc3;" 
d="M323 794q-32 0 -42 -53l-73 11q17 132 111 132q31 0 75 -25.5t57 -25.5q32 0 42 52l72 -10q-15 -132 -111 -132q-31 0 -74 25.5t-57 25.5zM584 0l-48 118h-298l-48 -118h-165l279 687h166l279 -687h-165zM285 233h204l-102 250z" />
    <glyph glyph-name="Adieresis" unicode="&#xc4;" 
d="M282 754q-30 0 -50.5 20.5t-20.5 49.5t20.5 49.5t50.5 20.5q28 0 49 -21t21 -49t-21 -49t-49 -21zM494 754q-30 0 -50.5 20.5t-20.5 49.5t20.5 49.5t50.5 20.5q28 0 49 -21t21 -49t-21 -49t-49 -21zM584 0l-48 118h-298l-48 -118h-165l279 687h166l279 -687h-165z
M285 233h204l-102 250z" />
    <glyph glyph-name="Aring" unicode="&#xc5;" 
d="M388 751q-47 0 -80.5 33t-33.5 80t33.5 80.5t80.5 33.5t80.5 -33.5t33.5 -80.5t-33.5 -80t-80.5 -33zM388 917q-22 0 -37.5 -15.5t-15.5 -37.5t15.5 -37.5t37.5 -15.5t37.5 15.5t15.5 37.5t-15.5 37.5t-37.5 15.5zM584 0l-48 118h-298l-48 -118h-165l279 687h166
l279 -687h-165zM285 233h204l-102 250z" />
    <glyph glyph-name="AE" unicode="&#xc6;" horiz-adv-x="1096" 
d="M23 0l396 687h623v-133h-381v-137h345v-133h-345v-151h381v-133h-529v118h-252l-68 -118h-170zM328 233h185v321z" />
    <glyph glyph-name="Ccedilla" unicode="&#xc7;" horiz-adv-x="694" 
d="M401 122q93 0 160 77l106 -96q-96 -100 -234 -114l-14 -32h1q32 0 53 -19t21 -49q0 -39 -30.5 -62.5t-77.5 -23.5q-55 0 -95 29l27 58q28 -23 60 -23q18 0 30 8.5t12 21.5q0 27 -32 27q-18 0 -30 -9l-22 21l23 54q-135 16 -229 118t-94 236q0 145 108 250t257 105
q157 0 266 -115l-107 -96q-65 77 -159 77q-86 0 -149.5 -66t-63.5 -155q0 -90 63.5 -156t149.5 -66z" />
    <glyph glyph-name="Egrave" unicode="&#xc8;" horiz-adv-x="654" 
d="M388 745h-99l-148 132l131 24zM600 554h-381v-137h345v-133h-345v-151h381v-133h-529v687h529v-133z" />
    <glyph glyph-name="Eacute" unicode="&#xc9;" horiz-adv-x="654" 
d="M532 877l-148 -132h-99l116 156zM600 554h-381v-137h345v-133h-345v-151h381v-133h-529v687h529v-133z" />
    <glyph glyph-name="Ecircumflex" unicode="&#xca;" horiz-adv-x="654" 
d="M336 819l-75 -74h-90l104 147h121l107 -147h-91zM600 554h-381v-137h345v-133h-345v-151h381v-133h-529v687h529v-133z" />
    <glyph glyph-name="Edieresis" unicode="&#xcb;" horiz-adv-x="654" 
d="M230 754q-30 0 -50.5 20.5t-20.5 49.5t20.5 49.5t50.5 20.5q28 0 49 -21t21 -49t-21 -49t-49 -21zM442 754q-30 0 -50.5 20.5t-20.5 49.5t20.5 49.5t50.5 20.5q28 0 49 -21t21 -49t-21 -49t-49 -21zM600 554h-381v-137h345v-133h-345v-151h381v-133h-529v687h529v-133z
" />
    <glyph glyph-name="Igrave" unicode="&#xcc;" horiz-adv-x="289" 
d="M97 745l-148 132l131 24l116 -156h-99zM71 0v687h147v-687h-147z" />
    <glyph glyph-name="Iacute" unicode="&#xcd;" horiz-adv-x="289" 
d="M93 745l116 156l131 -24l-148 -132h-99zM71 0v687h147v-687h-147z" />
    <glyph glyph-name="Icircumflex" unicode="&#xce;" horiz-adv-x="289" 
d="M-20 745l104 147h121l107 -147h-91l-76 74l-75 -74h-90zM71 0v687h147v-687h-147z" />
    <glyph glyph-name="Idieresis" unicode="&#xcf;" horiz-adv-x="289" 
d="M39 754q-30 0 -50.5 20.5t-20.5 49.5t20.5 49.5t50.5 20.5q29 0 49.5 -21t20.5 -49t-20.5 -49t-49.5 -21zM251 754q-30 0 -50.5 20.5t-20.5 49.5t20.5 49.5t50.5 20.5q29 0 49.5 -21t20.5 -49t-20.5 -49t-49.5 -21zM71 0v687h147v-687h-147z" />
    <glyph glyph-name="Eth" unicode="&#xd0;" horiz-adv-x="780" 
d="M350 687q173 0 283.5 -96t110.5 -247t-110.5 -247.5t-283.5 -96.5h-247v280h-71v133h71v274h247zM369 134q98 0 161 59t63 151t-63 150.5t-161 58.5h-118v-140h160l-1 -133h-159v-146h118z" />
    <glyph glyph-name="Ntilde" unicode="&#xd1;" horiz-adv-x="768" 
d="M451 743q-31 0 -74 25.5t-57 25.5q-32 0 -42 -53l-73 11q17 132 111 132q31 0 75 -25.5t57 -25.5q32 0 42 52l72 -10q-15 -132 -111 -132zM71 0v687h147l332 -444v444h147v-687h-147l-332 444v-444h-147z" />
    <glyph glyph-name="Ograve" unicode="&#xd2;" horiz-adv-x="802" 
d="M354 745l-148 132l131 24l116 -156h-99zM401 -12q-148 0 -256.5 105.5t-108.5 250.5t108 250t257 105t257 -105t108 -250t-108.5 -250.5t-256.5 -105.5zM401 122q87 0 150 66t63 156q0 89 -63 155t-150 66q-86 0 -149.5 -66t-63.5 -155q0 -90 63.5 -156t149.5 -66z" />
    <glyph glyph-name="Oacute" unicode="&#xd3;" horiz-adv-x="802" 
d="M350 745l116 156l131 -24l-148 -132h-99zM401 -12q-148 0 -256.5 105.5t-108.5 250.5t108 250t257 105t257 -105t108 -250t-108.5 -250.5t-256.5 -105.5zM401 122q87 0 150 66t63 156q0 89 -63 155t-150 66q-86 0 -149.5 -66t-63.5 -155q0 -90 63.5 -156t149.5 -66z" />
    <glyph glyph-name="Ocircumflex" unicode="&#xd4;" horiz-adv-x="802" 
d="M237 745l104 147h121l107 -147h-91l-76 74l-75 -74h-90zM401 -12q-148 0 -256.5 105.5t-108.5 250.5t108 250t257 105t257 -105t108 -250t-108.5 -250.5t-256.5 -105.5zM401 122q87 0 150 66t63 156q0 89 -63 155t-150 66q-86 0 -149.5 -66t-63.5 -155q0 -90 63.5 -156
t149.5 -66z" />
    <glyph glyph-name="Otilde" unicode="&#xd5;" horiz-adv-x="802" 
d="M468 743q-31 0 -74 25.5t-57 25.5q-32 0 -42 -53l-73 11q17 132 111 132q31 0 75 -25.5t57 -25.5q32 0 42 52l72 -10q-15 -132 -111 -132zM401 -12q-148 0 -256.5 105.5t-108.5 250.5t108 250t257 105t257 -105t108 -250t-108.5 -250.5t-256.5 -105.5zM401 122
q87 0 150 66t63 156q0 89 -63 155t-150 66q-86 0 -149.5 -66t-63.5 -155q0 -90 63.5 -156t149.5 -66z" />
    <glyph glyph-name="Odieresis" unicode="&#xd6;" horiz-adv-x="802" 
d="M296 754q-30 0 -50.5 20.5t-20.5 49.5t20.5 49.5t50.5 20.5q28 0 49 -21t21 -49t-21 -49t-49 -21zM508 754q-30 0 -50.5 20.5t-20.5 49.5t20.5 49.5t50.5 20.5q28 0 49 -21t21 -49t-21 -49t-49 -21zM401 -12q-148 0 -256.5 105.5t-108.5 250.5t108 250t257 105t257 -105
t108 -250t-108.5 -250.5t-256.5 -105.5zM401 122q87 0 150 66t63 156q0 89 -63 155t-150 66q-86 0 -149.5 -66t-63.5 -155q0 -90 63.5 -156t149.5 -66z" />
    <glyph glyph-name="multiply" unicode="&#xd7;" horiz-adv-x="533" 
d="M482 208l-89 -89l-128 128l-127 -126l-85 84l127 127l-128 128l89 89l128 -128l126 126l85 -85l-126 -126z" />
    <glyph glyph-name="Oslash" unicode="&#xd8;" horiz-adv-x="810" 
d="M671 586q100 -103 100 -242q0 -145 -108.5 -250.5t-256.5 -105.5q-104 0 -194 56l-38 -44h-130l91 108q-94 102 -94 236q0 145 108 250t257 105q100 0 187 -52l34 40h130zM192 344q0 -68 38 -125l272 321q-45 25 -96 25q-87 0 -150.5 -66t-63.5 -155zM406 122
q86 0 149.5 66t63.5 156q0 71 -43 130l-274 -323q50 -29 104 -29z" />
    <glyph glyph-name="Ugrave" unicode="&#xd9;" horiz-adv-x="734" 
d="M320 745l-148 132l131 24l116 -156h-99zM367 -12q-137 0 -224 86.5t-87 222.5v390h148v-384q0 -80 45.5 -130.5t117.5 -50.5t117.5 50.5t45.5 130.5v384h148v-390q0 -136 -87 -222.5t-224 -86.5z" />
    <glyph glyph-name="Uacute" unicode="&#xda;" horiz-adv-x="734" 
d="M316 745l116 156l131 -24l-148 -132h-99zM367 -12q-137 0 -224 86.5t-87 222.5v390h148v-384q0 -80 45.5 -130.5t117.5 -50.5t117.5 50.5t45.5 130.5v384h148v-390q0 -136 -87 -222.5t-224 -86.5z" />
    <glyph glyph-name="Ucircumflex" unicode="&#xdb;" horiz-adv-x="734" 
d="M202 745l104 147h121l107 -147h-91l-76 74l-75 -74h-90zM367 -12q-137 0 -224 86.5t-87 222.5v390h148v-384q0 -80 45.5 -130.5t117.5 -50.5t117.5 50.5t45.5 130.5v384h148v-390q0 -136 -87 -222.5t-224 -86.5z" />
    <glyph glyph-name="Udieresis" unicode="&#xdc;" horiz-adv-x="734" 
d="M262 754q-30 0 -50.5 20.5t-20.5 49.5t20.5 49.5t50.5 20.5q28 0 49 -21t21 -49t-21 -49t-49 -21zM474 754q-30 0 -50.5 20.5t-20.5 49.5t20.5 49.5t50.5 20.5q28 0 49 -21t21 -49t-21 -49t-49 -21zM367 -12q-137 0 -224 86.5t-87 222.5v390h148v-384q0 -80 45.5 -130.5
t117.5 -50.5t117.5 50.5t45.5 130.5v384h148v-390q0 -136 -87 -222.5t-224 -86.5z" />
    <glyph glyph-name="Yacute" unicode="&#xdd;" horiz-adv-x="732" 
d="M315 745l116 156l131 -24l-148 -132h-99zM292 0v248l-269 439h172l171 -301l178 301h165l-268 -439v-248h-149z" />
    <glyph glyph-name="Thorn" unicode="&#xde;" horiz-adv-x="672" 
d="M71 0v687h145v-110h164q112 0 185.5 -65t73.5 -167t-73.5 -167t-185.5 -65h-162v-113h-147zM218 249h147q55 0 88.5 26t33.5 70t-34 70.5t-88 26.5h-147v-193z" />
    <glyph glyph-name="germandbls" unicode="&#xdf;" horiz-adv-x="607" 
d="M61 0v519q0 87 68 142.5t175 55.5t175 -55.5t68 -142.5q0 -120 -90 -157q120 -45 120 -176q0 -82 -63.5 -134t-162.5 -52h-72v126h45q44 0 72.5 23.5t28.5 60.5t-28.5 60.5t-72.5 23.5h-45v116h23q40 0 66.5 23.5t26.5 56.5q0 35 -25.5 57t-67.5 22t-68 -23.5t-26 -62.5
v-483h-147z" />
    <glyph glyph-name="agrave" unicode="&#xe0;" horiz-adv-x="555" 
d="M347 575h-99l-148 132l131 24zM282 529q102 0 165 -60t63 -160v-309h-141v52q-58 -64 -153 -64q-84 0 -139 46t-55 119q0 75 61.5 123.5t152.5 48.5q67 0 133 -27v11q0 45 -30 74t-90 29q-62 0 -134 -37l-49 97q112 57 216 57zM249 89q44 0 78 19.5t42 54.5v47
q-51 20 -112 20q-40 0 -68 -21t-28 -52t25 -49.5t63 -18.5z" />
    <glyph glyph-name="aacute" unicode="&#xe1;" horiz-adv-x="555" 
d="M491 707l-148 -132h-99l116 156zM282 529q102 0 165 -60t63 -160v-309h-141v52q-58 -64 -153 -64q-84 0 -139 46t-55 119q0 75 61.5 123.5t152.5 48.5q67 0 133 -27v11q0 45 -30 74t-90 29q-62 0 -134 -37l-49 97q112 57 216 57zM249 89q44 0 78 19.5t42 54.5v47
q-51 20 -112 20q-40 0 -68 -21t-28 -52t25 -49.5t63 -18.5z" />
    <glyph glyph-name="acircumflex" unicode="&#xe2;" horiz-adv-x="555" 
d="M296 649l-75 -74h-90l104 147h121l107 -147h-91zM282 529q102 0 165 -60t63 -160v-309h-141v52q-58 -64 -153 -64q-84 0 -139 46t-55 119q0 75 61.5 123.5t152.5 48.5q67 0 133 -27v11q0 45 -30 74t-90 29q-62 0 -134 -37l-49 97q112 57 216 57zM249 89q44 0 78 19.5
t42 54.5v47q-51 20 -112 20q-40 0 -68 -21t-28 -52t25 -49.5t63 -18.5z" />
    <glyph glyph-name="atilde" unicode="&#xe3;" horiz-adv-x="555" 
d="M231 624q-32 0 -42 -53l-73 11q17 132 111 132q31 0 75 -25.5t57 -25.5q32 0 42 52l72 -10q-15 -132 -111 -132q-31 0 -74 25.5t-57 25.5zM282 529q102 0 165 -60t63 -160v-309h-141v52q-58 -64 -153 -64q-84 0 -139 46t-55 119q0 75 61.5 123.5t152.5 48.5q67 0 133 -27
v11q0 45 -30 74t-90 29q-62 0 -134 -37l-49 97q112 57 216 57zM249 89q44 0 78 19.5t42 54.5v47q-51 20 -112 20q-40 0 -68 -21t-28 -52t25 -49.5t63 -18.5z" />
    <glyph glyph-name="adieresis" unicode="&#xe4;" horiz-adv-x="555" 
d="M190 584q-30 0 -50.5 20.5t-20.5 49.5t20.5 49.5t50.5 20.5q28 0 49 -21t21 -49t-21 -49t-49 -21zM402 584q-30 0 -50.5 20.5t-20.5 49.5t20.5 49.5t50.5 20.5q28 0 49 -21t21 -49t-21 -49t-49 -21zM282 529q102 0 165 -60t63 -160v-309h-141v52q-58 -64 -153 -64
q-84 0 -139 46t-55 119q0 75 61.5 123.5t152.5 48.5q67 0 133 -27v11q0 45 -30 74t-90 29q-62 0 -134 -37l-49 97q112 57 216 57zM249 89q44 0 78 19.5t42 54.5v47q-51 20 -112 20q-40 0 -68 -21t-28 -52t25 -49.5t63 -18.5z" />
    <glyph glyph-name="aring" unicode="&#xe5;" horiz-adv-x="555" 
d="M295 581q-47 0 -80.5 33t-33.5 80t33.5 80.5t80.5 33.5t80.5 -33.5t33.5 -80.5t-33.5 -80t-80.5 -33zM295 747q-22 0 -37.5 -15.5t-15.5 -37.5t15.5 -37.5t37.5 -15.5t37.5 15.5t15.5 37.5t-15.5 37.5t-37.5 15.5zM282 529q102 0 165 -60t63 -160v-309h-141v52
q-58 -64 -153 -64q-84 0 -139 46t-55 119q0 75 61.5 123.5t152.5 48.5q67 0 133 -27v11q0 45 -30 74t-90 29q-62 0 -134 -37l-49 97q112 57 216 57zM249 89q44 0 78 19.5t42 54.5v47q-51 20 -112 20q-40 0 -68 -21t-28 -52t25 -49.5t63 -18.5z" />
    <glyph glyph-name="ae" unicode="&#xe6;" horiz-adv-x="919" 
d="M640 101q77 0 135 51l82 -84q-34 -36 -93.5 -58t-117.5 -22q-127 0 -205 89q-68 -89 -202 -89q-98 0 -157.5 45t-59.5 120t62 123.5t153 48.5q60 0 132 -25v9q0 45 -29.5 74t-89.5 29q-61 0 -135 -37l-48 97q112 57 204 57q119 0 173 -81q76 81 194 81q121 0 190 -82.5
t69 -226.5h-389q10 -54 45 -86.5t87 -32.5zM639 416q-48 0 -83 -29.5t-47 -79.5h248q-9 50 -39.5 79.5t-78.5 29.5zM368 163v47q-55 20 -112 20q-40 0 -67.5 -21t-27.5 -52t25 -49.5t63 -18.5q44 0 78 19.5t41 54.5z" />
    <glyph glyph-name="ccedilla" unicode="&#xe7;" horiz-adv-x="530" 
d="M513 79q-75 -83 -184 -90l-14 -32h1q32 0 53 -19t21 -49q0 -39 -30.5 -62.5t-77.5 -23.5q-55 0 -95 29l27 58q28 -23 60 -23q18 0 30 8.5t12 21.5q0 27 -32 27q-18 0 -30 -9l-22 21l24 56q-98 18 -164.5 94t-66.5 173q0 110 83.5 190t199.5 80q122 0 202 -88l-97 -83
q-41 48 -106 48q-57 0 -98.5 -43.5t-41.5 -102.5q0 -61 41.5 -105t98.5 -44q66 0 109 50z" />
    <glyph glyph-name="egrave" unicode="&#xe8;" horiz-adv-x="576" 
d="M347 575h-99l-148 132l131 24zM298 101q35 0 72 14t62 37l82 -84q-34 -36 -93.5 -58t-117.5 -22q-117 0 -197 77t-80 195q0 116 77.5 192.5t191.5 76.5q121 0 190.5 -82.5t69.5 -226.5h-390q10 -54 45.5 -86.5t87.5 -32.5zM296 416q-48 0 -83 -29.5t-47 -79.5h249
q-9 50 -40 79.5t-79 29.5z" />
    <glyph glyph-name="eacute" unicode="&#xe9;" horiz-adv-x="576" 
d="M491 707l-148 -132h-99l116 156zM298 101q35 0 72 14t62 37l82 -84q-34 -36 -93.5 -58t-117.5 -22q-117 0 -197 77t-80 195q0 116 77.5 192.5t191.5 76.5q121 0 190.5 -82.5t69.5 -226.5h-390q10 -54 45.5 -86.5t87.5 -32.5zM296 416q-48 0 -83 -29.5t-47 -79.5h249
q-9 50 -40 79.5t-79 29.5z" />
    <glyph glyph-name="ecircumflex" unicode="&#xea;" horiz-adv-x="576" 
d="M296 649l-75 -74h-90l104 147h121l107 -147h-91zM298 101q35 0 72 14t62 37l82 -84q-34 -36 -93.5 -58t-117.5 -22q-117 0 -197 77t-80 195q0 116 77.5 192.5t191.5 76.5q121 0 190.5 -82.5t69.5 -226.5h-390q10 -54 45.5 -86.5t87.5 -32.5zM296 416q-48 0 -83 -29.5
t-47 -79.5h249q-9 50 -40 79.5t-79 29.5z" />
    <glyph glyph-name="edieresis" unicode="&#xeb;" horiz-adv-x="576" 
d="M190 584q-30 0 -50.5 20.5t-20.5 49.5t20.5 49.5t50.5 20.5q28 0 49 -21t21 -49t-21 -49t-49 -21zM402 584q-30 0 -50.5 20.5t-20.5 49.5t20.5 49.5t50.5 20.5q28 0 49 -21t21 -49t-21 -49t-49 -21zM298 101q35 0 72 14t62 37l82 -84q-34 -36 -93.5 -58t-117.5 -22
q-117 0 -197 77t-80 195q0 116 77.5 192.5t191.5 76.5q121 0 190.5 -82.5t69.5 -226.5h-390q10 -54 45.5 -86.5t87.5 -32.5zM296 416q-48 0 -83 -29.5t-47 -79.5h249q-9 50 -40 79.5t-79 29.5z" />
    <glyph glyph-name="igrave" unicode="&#xec;" horiz-adv-x="259" 
d="M83 575l-148 132l131 24l116 -156h-99zM56 0v517h146v-517h-146z" />
    <glyph glyph-name="iacute" unicode="&#xed;" horiz-adv-x="259" 
d="M79 575l116 156l131 -24l-148 -132h-99zM56 0v517h146v-517h-146z" />
    <glyph glyph-name="icircumflex" unicode="&#xee;" horiz-adv-x="259" 
d="M-35 575l104 147h121l107 -147h-91l-76 74l-75 -74h-90zM56 0v517h146v-517h-146z" />
    <glyph glyph-name="idieresis" unicode="&#xef;" horiz-adv-x="259" 
d="M24 584q-30 0 -50.5 20.5t-20.5 49.5t20.5 49.5t50.5 20.5q28 0 49 -21t21 -49t-21 -49t-49 -21zM236 584q-30 0 -50.5 20.5t-20.5 49.5t20.5 49.5t50.5 20.5q28 0 49 -21t21 -49t-21 -49t-49 -21zM56 0v517h146v-517h-146z" />
    <glyph glyph-name="eth" unicode="&#xf0;" horiz-adv-x="600" 
d="M399 615q89 -82 130.5 -161.5t41.5 -173.5q0 -128 -76.5 -210t-195.5 -82t-196 73.5t-77 188.5q0 107 63.5 175.5t162.5 68.5q90 0 152 -72q-36 70 -121 141l-104 -46l-34 77l62 28q-23 16 -71 48l131 56q15 -11 63 -50l89 40l34 -77zM299 112q57 0 93.5 37t36.5 95
q0 56 -36.5 94t-94.5 38q-57 0 -93.5 -37t-36.5 -94q0 -59 36.5 -96t94.5 -37z" />
    <glyph glyph-name="ntilde" unicode="&#xf1;" horiz-adv-x="596" 
d="M234 624q-32 0 -42 -53l-73 11q17 132 111 132q31 0 75 -25.5t57 -25.5q32 0 42 52l72 -10q-15 -132 -111 -132q-31 0 -74 25.5t-57 25.5zM358 529q84 0 137.5 -56t53.5 -144v-329h-140v298q0 48 -27 78t-71 30q-46 0 -77.5 -29t-31.5 -71v-306h-146v517h146v-64
q24 35 65 55.5t91 20.5z" />
    <glyph glyph-name="ograve" unicode="&#xf2;" horiz-adv-x="614" 
d="M260 575l-148 132l131 24l116 -156h-99zM307 -12q-116 0 -199 79.5t-83 191.5t83 191t199 79t199 -79t83 -191t-83 -191.5t-199 -79.5zM307 111q58 0 100 43.5t42 104.5t-41.5 104t-100.5 43t-100.5 -43t-41.5 -104t42 -104.5t100 -43.5z" />
    <glyph glyph-name="oacute" unicode="&#xf3;" horiz-adv-x="614" 
d="M256 575l116 156l131 -24l-148 -132h-99zM307 -12q-116 0 -199 79.5t-83 191.5t83 191t199 79t199 -79t83 -191t-83 -191.5t-199 -79.5zM307 111q58 0 100 43.5t42 104.5t-41.5 104t-100.5 43t-100.5 -43t-41.5 -104t42 -104.5t100 -43.5z" />
    <glyph glyph-name="ocircumflex" unicode="&#xf4;" horiz-adv-x="614" 
d="M143 575l104 147h121l107 -147h-91l-76 74l-75 -74h-90zM307 -12q-116 0 -199 79.5t-83 191.5t83 191t199 79t199 -79t83 -191t-83 -191.5t-199 -79.5zM307 111q58 0 100 43.5t42 104.5t-41.5 104t-100.5 43t-100.5 -43t-41.5 -104t42 -104.5t100 -43.5z" />
    <glyph glyph-name="otilde" unicode="&#xf5;" horiz-adv-x="614" 
d="M374 573q-31 0 -74 25.5t-57 25.5q-32 0 -42 -53l-73 11q17 132 111 132q31 0 75 -25.5t57 -25.5q32 0 42 52l72 -10q-15 -132 -111 -132zM307 -12q-116 0 -199 79.5t-83 191.5t83 191t199 79t199 -79t83 -191t-83 -191.5t-199 -79.5zM307 111q58 0 100 43.5t42 104.5
t-41.5 104t-100.5 43t-100.5 -43t-41.5 -104t42 -104.5t100 -43.5z" />
    <glyph glyph-name="odieresis" unicode="&#xf6;" horiz-adv-x="614" 
d="M202 584q-30 0 -50.5 20.5t-20.5 49.5t20.5 49.5t50.5 20.5q28 0 49 -21t21 -49t-21 -49t-49 -21zM414 584q-30 0 -50.5 20.5t-20.5 49.5t20.5 49.5t50.5 20.5q28 0 49 -21t21 -49t-21 -49t-49 -21zM307 -12q-116 0 -199 79.5t-83 191.5t83 191t199 79t199 -79t83 -191
t-83 -191.5t-199 -79.5zM307 111q58 0 100 43.5t42 104.5t-41.5 104t-100.5 43t-100.5 -43t-41.5 -104t42 -104.5t100 -43.5z" />
    <glyph glyph-name="divide" unicode="&#xf7;" horiz-adv-x="591" 
d="M297 442q-34 0 -58 24t-24 58q0 32 24 55.5t58 23.5q32 0 55.5 -23.5t23.5 -55.5q0 -34 -23.5 -58t-55.5 -24zM53 275v119h483v-119h-483zM297 65q-34 0 -58 24t-24 58q0 32 24 55.5t58 23.5q32 0 55.5 -23.5t23.5 -55.5q0 -34 -23.5 -58t-55.5 -24z" />
    <glyph glyph-name="oslash" unicode="&#xf8;" horiz-adv-x="626" 
d="M523 438q71 -76 71 -179q0 -112 -82.5 -191.5t-198.5 -79.5q-79 0 -146 39l-23 -27h-106l66 77q-74 77 -74 182q0 112 83 191t200 79q79 0 148 -40l24 28h106zM170 259q0 -45 23 -80l183 212q-32 15 -63 15q-59 0 -101 -43t-42 -104zM313 111q58 0 99.5 43.5t41.5 104.5
q0 39 -20 76l-182 -210q30 -14 61 -14z" />
    <glyph glyph-name="ugrave" unicode="&#xf9;" horiz-adv-x="595" 
d="M338 575h-99l-148 132l131 24zM394 517h145v-517h-145v64q-24 -35 -65 -55.5t-91 -20.5q-85 0 -138.5 56t-53.5 144v329h141v-298q0 -48 27 -78t71 -30q46 0 77.5 29t31.5 71v306z" />
    <glyph glyph-name="uacute" unicode="&#xfa;" horiz-adv-x="595" 
d="M482 707l-148 -132h-99l116 156zM394 517h145v-517h-145v64q-24 -35 -65 -55.5t-91 -20.5q-85 0 -138.5 56t-53.5 144v329h141v-298q0 -48 27 -78t71 -30q46 0 77.5 29t31.5 71v306z" />
    <glyph glyph-name="ucircumflex" unicode="&#xfb;" horiz-adv-x="595" 
d="M287 649l-75 -74h-90l104 147h121l107 -147h-91zM394 517h145v-517h-145v64q-24 -35 -65 -55.5t-91 -20.5q-85 0 -138.5 56t-53.5 144v329h141v-298q0 -48 27 -78t71 -30q46 0 77.5 29t31.5 71v306z" />
    <glyph glyph-name="udieresis" unicode="&#xfc;" horiz-adv-x="595" 
d="M181 584q-30 0 -50.5 20.5t-20.5 49.5t20.5 49.5t50.5 20.5q29 0 49.5 -21t20.5 -49t-20.5 -49t-49.5 -21zM393 584q-30 0 -50.5 20.5t-20.5 49.5t20.5 49.5t50.5 20.5q29 0 49.5 -21t20.5 -49t-20.5 -49t-49.5 -21zM394 517h145v-517h-145v64q-24 -35 -65 -55.5
t-91 -20.5q-85 0 -138.5 56t-53.5 144v329h141v-298q0 -48 27 -78t71 -30q46 0 77.5 29t31.5 71v306z" />
    <glyph glyph-name="yacute" unicode="&#xfd;" horiz-adv-x="596" 
d="M253 575l116 156l131 -24l-148 -132h-99zM183 -180q-70 0 -129 32l31 100q39 -23 68 -23q44 0 65 36l14 30l-215 522h151l136 -363l128 363h149l-211 -543q-61 -154 -187 -154z" />
    <glyph glyph-name="thorn" unicode="&#xfe;" horiz-adv-x="653" 
d="M387 529q104 0 171 -76t67 -194q0 -119 -67 -195t-171 -76q-109 0 -174 86v-246h-146v871h146v-256q65 86 174 86zM345 111q61 0 99.5 41.5t38.5 106.5t-38.5 106t-99.5 41q-58 0 -95 -41.5t-37 -105.5q0 -65 37 -106.5t95 -41.5z" />
    <glyph glyph-name="ydieresis" unicode="&#xff;" horiz-adv-x="596" 
d="M199 584q-30 0 -50.5 20.5t-20.5 49.5t20.5 49.5t50.5 20.5q29 0 49.5 -21t20.5 -49t-20.5 -49t-49.5 -21zM411 584q-30 0 -50.5 20.5t-20.5 49.5t20.5 49.5t50.5 20.5q29 0 49.5 -21t20.5 -49t-20.5 -49t-49.5 -21zM183 -180q-70 0 -129 32l31 100q39 -23 68 -23
q44 0 65 36l14 30l-215 522h151l136 -363l128 363h149l-211 -543q-61 -154 -187 -154z" />
    <glyph glyph-name="Amacron" unicode="&#x100;" 
d="M560 837v-86h-345v86h345zM584 0l-48 118h-298l-48 -118h-165l279 687h166l279 -687h-165zM285 233h204l-102 250z" />
    <glyph glyph-name="amacron" unicode="&#x101;" horiz-adv-x="555" 
d="M467 667v-86h-345v86h345zM282 529q102 0 165 -60t63 -160v-309h-141v52q-58 -64 -153 -64q-84 0 -139 46t-55 119q0 75 61.5 123.5t152.5 48.5q67 0 133 -27v11q0 45 -30 74t-90 29q-62 0 -134 -37l-49 97q112 57 216 57zM249 89q44 0 78 19.5t42 54.5v47
q-51 20 -112 20q-40 0 -68 -21t-28 -52t25 -49.5t63 -18.5z" />
    <glyph glyph-name="Abreve" unicode="&#x102;" 
d="M548 817q-66 -66 -161 -66q-93 0 -161 66l63 63q44 -42 98 -42t98 42zM584 0l-48 118h-298l-48 -118h-165l279 687h166l279 -687h-165zM285 233h204l-102 250z" />
    <glyph glyph-name="abreve" unicode="&#x103;" horiz-adv-x="555" 
d="M456 647q-66 -66 -161 -66q-93 0 -161 66l63 63q44 -42 98 -42t98 42zM282 529q102 0 165 -60t63 -160v-309h-141v52q-58 -64 -153 -64q-84 0 -139 46t-55 119q0 75 61.5 123.5t152.5 48.5q67 0 133 -27v11q0 45 -30 74t-90 29q-62 0 -134 -37l-49 97q112 57 216 57z
M249 89q44 0 78 19.5t42 54.5v47q-51 20 -112 20q-40 0 -68 -21t-28 -52t25 -49.5t63 -18.5z" />
    <glyph glyph-name="Aogonek" unicode="&#x104;" 
d="M787 -72l26 -68q-38 -33 -90 -33q-49 0 -80 30t-31 81q0 35 19 62h-47l-48 118h-298l-48 -118h-165l279 687h166l279 -687q-20 0 -33 -12.5t-13 -31.5q0 -41 47 -41q22 0 37 13zM285 233h204l-102 250z" />
    <glyph glyph-name="aogonek" unicode="&#x105;" horiz-adv-x="555" 
d="M547 -72l26 -68q-38 -33 -90 -33q-49 0 -80 30t-31 81q0 35 19 62h-22v52q-58 -64 -153 -64q-84 0 -139 46t-55 119q0 75 61.5 123.5t152.5 48.5q67 0 133 -27v11q0 45 -30 74t-90 29q-62 0 -134 -37l-49 97q112 57 216 57q102 0 165 -60t63 -160v-309h-1
q-20 0 -33 -12.5t-13 -31.5q0 -41 47 -41q22 0 37 13zM249 89q44 0 78 19.5t42 54.5v47q-51 20 -112 20q-40 0 -68 -21t-28 -52t25 -49.5t63 -18.5z" />
    <glyph glyph-name="Cacute" unicode="&#x106;" horiz-adv-x="694" 
d="M350 745l116 156l131 -24l-148 -132h-99zM401 -12q-148 0 -256.5 105.5t-108.5 250.5t108 250t257 105q157 0 266 -115l-107 -96q-65 77 -159 77q-86 0 -149.5 -66t-63.5 -155q0 -90 63.5 -156t149.5 -66q93 0 160 77l106 -96q-110 -115 -266 -115z" />
    <glyph glyph-name="cacute" unicode="&#x107;" horiz-adv-x="530" 
d="M235 575l116 156l131 -24l-148 -132h-99zM306 -12q-114 0 -197.5 80.5t-83.5 190.5t83.5 190t199.5 80q122 0 202 -88l-97 -83q-41 48 -106 48q-57 0 -98.5 -43.5t-41.5 -102.5q0 -61 41.5 -105t98.5 -44q66 0 109 50l97 -82q-81 -91 -207 -91z" />
    <glyph glyph-name="Ccaron" unicode="&#x10c;" horiz-adv-x="694" 
d="M341 745l-104 147h90l75 -75l76 75h91l-107 -147h-121zM401 -12q-148 0 -256.5 105.5t-108.5 250.5t108 250t257 105q157 0 266 -115l-107 -96q-65 77 -159 77q-86 0 -149.5 -66t-63.5 -155q0 -90 63.5 -156t149.5 -66q93 0 160 77l106 -96q-110 -115 -266 -115z" />
    <glyph glyph-name="ccaron" unicode="&#x10d;" horiz-adv-x="530" 
d="M226 575l-104 147h90l75 -75l76 75h91l-107 -147h-121zM306 -12q-114 0 -197.5 80.5t-83.5 190.5t83.5 190t199.5 80q122 0 202 -88l-97 -83q-41 48 -106 48q-57 0 -98.5 -43.5t-41.5 -102.5q0 -61 41.5 -105t98.5 -44q66 0 109 50l97 -82q-81 -91 -207 -91z" />
    <glyph glyph-name="Dcaron" unicode="&#x10e;" horiz-adv-x="748" 
d="M257 745l-104 147h90l75 -75l76 75h91l-107 -147h-121zM71 0v687h246q173 0 284 -96t111 -247t-111 -247.5t-284 -96.5h-246zM218 134h118q99 0 161.5 59t62.5 151t-62.5 150.5t-161.5 58.5h-118v-419z" />
    <glyph glyph-name="dcaron" unicode="&#x10f;" horiz-adv-x="794" 
d="M440 444v255h146v-699h-146v73q-66 -85 -174 -85q-104 0 -170.5 76t-66.5 195q0 118 66.5 194t170.5 76q108 0 174 -85zM717 699q32 0 52.5 -26.5t20.5 -69.5q0 -66 -82 -148l-41 31q38 36 47 73q-28 0 -47 20t-19 50t19.5 50t49.5 20zM308 111q58 0 95 41.5t37 106.5
t-37 106t-95 41q-60 0 -98.5 -41.5t-38.5 -105.5q0 -65 38.5 -106.5t98.5 -41.5z" />
    <glyph glyph-name="Dcroat" unicode="&#x110;" horiz-adv-x="780" 
d="M350 687q173 0 283.5 -96t110.5 -247t-110.5 -247.5t-283.5 -96.5h-247v280h-71v133h71v274h247zM369 134q98 0 161 59t63 151t-63 150.5t-161 58.5h-118v-140h160l-1 -133h-159v-146h118z" />
    <glyph glyph-name="dcroat" unicode="&#x111;" horiz-adv-x="656" 
d="M656 647v-74h-70v-573h-146v73q-66 -85 -174 -85q-104 0 -170.5 76t-66.5 195q0 118 66.5 194t170.5 76q108 0 174 -85v129h-142v74h142v52h146v-52h70zM308 111q58 0 95 41.5t37 106.5t-37 106t-95 41q-60 0 -98.5 -41.5t-38.5 -105.5q0 -65 38.5 -106.5t98.5 -41.5z
" />
    <glyph glyph-name="Emacron" unicode="&#x112;" horiz-adv-x="654" 
d="M508 837v-86h-345v86h345zM600 554h-381v-137h345v-133h-345v-151h381v-133h-529v687h529v-133z" />
    <glyph glyph-name="emacron" unicode="&#x113;" horiz-adv-x="576" 
d="M467 667v-86h-345v86h345zM298 101q35 0 72 14t62 37l82 -84q-34 -36 -93.5 -58t-117.5 -22q-117 0 -197 77t-80 195q0 116 77.5 192.5t191.5 76.5q121 0 190.5 -82.5t69.5 -226.5h-390q10 -54 45.5 -86.5t87.5 -32.5zM296 416q-48 0 -83 -29.5t-47 -79.5h249
q-9 50 -40 79.5t-79 29.5z" />
    <glyph glyph-name="Edotaccent" unicode="&#x116;" horiz-adv-x="654" 
d="M336 754q-30 0 -50.5 20.5t-20.5 49.5t20.5 49.5t50.5 20.5q28 0 49 -21t21 -49t-21 -49t-49 -21zM600 554h-381v-137h345v-133h-345v-151h381v-133h-529v687h529v-133z" />
    <glyph glyph-name="edotaccent" unicode="&#x117;" horiz-adv-x="576" 
d="M295 584q-30 0 -50.5 20.5t-20.5 49.5t20.5 49.5t50.5 20.5q29 0 49.5 -21t20.5 -49t-20.5 -49t-49.5 -21zM298 101q35 0 72 14t62 37l82 -84q-34 -36 -93.5 -58t-117.5 -22q-117 0 -197 77t-80 195q0 116 77.5 192.5t191.5 76.5q121 0 190.5 -82.5t69.5 -226.5h-390
q10 -54 45.5 -86.5t87.5 -32.5zM296 416q-48 0 -83 -29.5t-47 -79.5h249q-9 50 -40 79.5t-79 29.5z" />
    <glyph glyph-name="Eogonek" unicode="&#x118;" horiz-adv-x="654" 
d="M638 -72l26 -68q-38 -33 -90 -33q-49 0 -80 30t-31 81q0 35 19 62h-411v687h529v-133h-381v-137h345v-133h-345v-151h381v-133q-20 0 -33 -12.5t-13 -31.5q0 -41 47 -41q22 0 37 13z" />
    <glyph glyph-name="eogonek" unicode="&#x119;" horiz-adv-x="584" 
d="M298 101q35 0 72 14t62 37l82 -84q-46 -49 -135 -71q-4 -7 -4 -18q0 -40 47 -40q22 0 37 13l26 -69q-39 -32 -90 -32q-49 0 -80 30t-31 81q0 14 3 26q-111 6 -186 82.5t-75 189.5q0 116 77.5 192.5t191.5 76.5q121 0 190.5 -82.5t69.5 -226.5h-390q10 -54 45.5 -86.5
t87.5 -32.5zM296 416q-48 0 -83 -29.5t-47 -79.5h249q-9 50 -40 79.5t-79 29.5z" />
    <glyph glyph-name="Ecaron" unicode="&#x11a;" horiz-adv-x="654" 
d="M396 745h-121l-104 147h90l75 -75l76 75h91zM600 554h-381v-137h345v-133h-345v-151h381v-133h-529v687h529v-133z" />
    <glyph glyph-name="ecaron" unicode="&#x11b;" horiz-adv-x="576" 
d="M356 575h-121l-104 147h90l75 -75l76 75h91zM298 101q35 0 72 14t62 37l82 -84q-34 -36 -93.5 -58t-117.5 -22q-117 0 -197 77t-80 195q0 116 77.5 192.5t191.5 76.5q121 0 190.5 -82.5t69.5 -226.5h-390q10 -54 45.5 -86.5t87.5 -32.5zM296 416q-48 0 -83 -29.5
t-47 -79.5h249q-9 50 -40 79.5t-79 29.5z" />
    <glyph glyph-name="Gbreve" unicode="&#x11e;" horiz-adv-x="728" 
d="M565 817q-66 -66 -161 -66q-93 0 -161 66l63 63q44 -42 98 -42t98 42zM378 271v115h303v-283q-51 -54 -125 -84.5t-152 -30.5q-151 0 -259.5 105t-108.5 251q0 145 108.5 250t259.5 105q78 0 152 -30.5t125 -84.5l-107 -96q-30 35 -76.5 56t-93.5 21q-88 0 -152 -65.5
t-64 -155.5q0 -91 64 -156.5t152 -65.5q71 0 133 43v106h-159z" />
    <glyph glyph-name="gbreve" unicode="&#x11f;" horiz-adv-x="633" 
d="M466 647q-66 -66 -161 -66q-93 0 -161 66l63 63q44 -42 98 -42t98 42zM429 517h146v-462q0 -100 -78 -163.5t-200 -63.5q-138 0 -228 69l51 103q56 -49 155 -49q70 0 112 30t42 80v58q-65 -81 -171 -81q-99 0 -164.5 69.5t-65.5 176.5t65.5 176t164.5 69q51 0 98 -22.5
t73 -59.5v70zM304 161q55 0 90 34.5t35 88.5t-35 88t-90 34t-90 -34t-35 -88t35 -88.5t90 -34.5z" />
    <glyph glyph-name="uni0122" unicode="&#x122;" horiz-adv-x="728" 
d="M378 271v115h303v-283q-51 -54 -125 -84.5t-152 -30.5q-151 0 -259.5 105t-108.5 251q0 145 108.5 250t259.5 105q78 0 152 -30.5t125 -84.5l-107 -96q-30 35 -76.5 56t-93.5 21q-88 0 -152 -65.5t-64 -155.5q0 -91 64 -156.5t152 -65.5q71 0 133 43v106h-159zM404 -47
q32 0 52.5 -25.5t20.5 -64.5q0 -72 -82 -154l-40 31q38 36 47 74q-29 0 -48 19.5t-19 49.5t19.5 50t49.5 20z" />
    <glyph glyph-name="uni0123" unicode="&#x123;" horiz-adv-x="633" 
d="M306 585q-32 0 -52.5 25.5t-20.5 64.5q0 72 82 154l41 -31q-38 -36 -47 -74q29 0 47.5 -19.5t18.5 -49.5t-19.5 -50t-49.5 -20zM429 517h146v-462q0 -100 -78 -163.5t-200 -63.5q-138 0 -228 69l51 103q56 -49 155 -49q70 0 112 30t42 80v58q-65 -81 -171 -81
q-99 0 -164.5 69.5t-65.5 176.5t65.5 176t164.5 69q51 0 98 -22.5t73 -59.5v70zM304 161q55 0 90 34.5t35 88.5t-35 88t-90 34t-90 -34t-35 -88t35 -88.5t90 -34.5z" />
    <glyph glyph-name="Imacron" unicode="&#x12a;" horiz-adv-x="289" 
d="M-28 751v86h345v-86h-345zM71 0v687h147v-687h-147z" />
    <glyph glyph-name="imacron" unicode="&#x12b;" horiz-adv-x="259" 
d="M-43 581v86h345v-86h-345zM56 0v517h146v-517h-146z" />
    <glyph glyph-name="Iogonek" unicode="&#x12e;" horiz-adv-x="289" 
d="M256 -72l26 -68q-38 -33 -90 -33q-49 0 -80 30t-31 81q0 35 19 62h-29v687h147v-687q-20 0 -33 -12.5t-13 -31.5q0 -41 47 -41q22 0 37 13z" />
    <glyph glyph-name="iogonek" unicode="&#x12f;" horiz-adv-x="259" 
d="M130 584q-30 0 -50.5 20.5t-20.5 49.5t20.5 49.5t50.5 20.5q28 0 49 -21t21 -49t-21 -49t-49 -21zM240 -72l26 -68q-38 -33 -90 -33q-49 0 -80 30t-31 81q0 35 19 62h-28v517h146v-517q-20 0 -33 -12.5t-13 -31.5q0 -41 47 -41q22 0 37 13z" />
    <glyph glyph-name="Idotaccent" unicode="&#x130;" horiz-adv-x="289" 
d="M145 754q-30 0 -50.5 20.5t-20.5 49.5t20.5 49.5t50.5 20.5q29 0 49.5 -21t20.5 -49t-20.5 -49t-49.5 -21zM71 0v687h147v-687h-147z" />
    <glyph glyph-name="dotlessi" unicode="&#x131;" horiz-adv-x="259" 
d="M56 0v517h146v-517h-146z" />
    <glyph glyph-name="uni0136" unicode="&#x136;" horiz-adv-x="719" 
d="M71 0v687h147v-315l278 315h179l-268 -298l287 -389h-179l-211 284l-86 -92v-192h-147zM374 -291l-40 31q38 36 47 74q-29 0 -48 19.5t-19 49.5t19.5 50t49.5 20q32 0 52.5 -25.5t20.5 -64.5q0 -72 -82 -154z" />
    <glyph glyph-name="uni0137" unicode="&#x137;" horiz-adv-x="588" 
d="M62 0v699h146v-406l193 224h168l-202 -229l199 -288h-167l-129 194l-62 -68v-126h-146zM282 -291l-40 31q38 36 47 74q-29 0 -48 19.5t-19 49.5t19.5 50t49.5 20q32 0 52.5 -25.5t20.5 -64.5q0 -72 -82 -154z" />
    <glyph glyph-name="Lacute" unicode="&#x139;" horiz-adv-x="592" 
d="M341 877l-148 -132h-99l116 156zM218 133h342v-133h-489v687h147v-554z" />
    <glyph glyph-name="lacute" unicode="&#x13a;" horiz-adv-x="270" 
d="M84 757l116 156l131 -24l-148 -132h-99zM62 0v699h146v-699h-146z" />
    <glyph glyph-name="Lcaron" unicode="&#x13d;" horiz-adv-x="592" 
d="M347 559q-29 0 -47.5 19.5t-18.5 49.5t19.5 50t49.5 20q32 0 52.5 -25.5t20.5 -64.5q0 -72 -82 -154l-41 31q38 36 47 74zM218 133h342v-133h-489v687h147v-554z" />
    <glyph glyph-name="lcaron" unicode="&#x13e;" horiz-adv-x="409" 
d="M62 0v699h146v-699h-146zM323 455l-40 31q38 36 47 73q-29 0 -48 20t-19 50t19.5 50t49.5 20q32 0 52.5 -26.5t20.5 -69.5q0 -66 -82 -148z" />
    <glyph glyph-name="Lslash" unicode="&#x141;" horiz-adv-x="647" 
d="M273 133h342v-133h-489v248l-95 -48v131l95 47v309h147v-235l97 48v-130l-97 -49v-188z" />
    <glyph glyph-name="lslash" unicode="&#x142;" horiz-adv-x="350" 
d="M326 482v-130l-78 -39v-313h-146v239l-78 -39v131l78 39v329h146v-256z" />
    <glyph glyph-name="Nacute" unicode="&#x143;" horiz-adv-x="768" 
d="M333 745l116 156l131 -24l-148 -132h-99zM71 0v687h147l332 -444v444h147v-687h-147l-332 444v-444h-147z" />
    <glyph glyph-name="nacute" unicode="&#x144;" horiz-adv-x="596" 
d="M495 707l-148 -132h-99l116 156zM358 529q84 0 137.5 -56t53.5 -144v-329h-140v298q0 48 -27 78t-71 30q-46 0 -77.5 -29t-31.5 -71v-306h-146v517h146v-64q24 35 65 55.5t91 20.5z" />
    <glyph glyph-name="uni0145" unicode="&#x145;" horiz-adv-x="768" 
d="M71 0v687h147l332 -444v444h147v-687h-147l-332 444v-444h-147zM375 -291l-40 31q38 36 47 74q-29 0 -48 19.5t-19 49.5t19.5 50t49.5 20q32 0 52.5 -25.5t20.5 -64.5q0 -72 -82 -154z" />
    <glyph glyph-name="uni0146" unicode="&#x146;" horiz-adv-x="596" 
d="M358 529q84 0 137.5 -56t53.5 -144v-329h-140v298q0 48 -27 78t-71 30q-46 0 -77.5 -29t-31.5 -71v-306h-146v517h146v-64q24 35 65 55.5t91 20.5zM299 -47q32 0 52.5 -25.5t20.5 -64.5q0 -72 -82 -154l-40 31q38 36 47 74q-29 0 -48 19.5t-19 49.5t19.5 50t49.5 20z" />
    <glyph glyph-name="Ncaron" unicode="&#x147;" horiz-adv-x="768" 
d="M323 745l-104 147h90l75 -75l76 75h91l-107 -147h-121zM71 0v687h147l332 -444v444h147v-687h-147l-332 444v-444h-147z" />
    <glyph glyph-name="ncaron" unicode="&#x148;" horiz-adv-x="596" 
d="M359 575h-121l-104 147h90l75 -75l76 75h91zM358 529q84 0 137.5 -56t53.5 -144v-329h-140v298q0 48 -27 78t-71 30q-46 0 -77.5 -29t-31.5 -71v-306h-146v517h146v-64q24 35 65 55.5t91 20.5z" />
    <glyph glyph-name="Omacron" unicode="&#x14c;" horiz-adv-x="802" 
d="M228 751v86h345v-86h-345zM401 -12q-148 0 -256.5 105.5t-108.5 250.5t108 250t257 105t257 -105t108 -250t-108.5 -250.5t-256.5 -105.5zM401 122q87 0 150 66t63 156q0 89 -63 155t-150 66q-86 0 -149.5 -66t-63.5 -155q0 -90 63.5 -156t149.5 -66z" />
    <glyph glyph-name="omacron" unicode="&#x14d;" horiz-adv-x="614" 
d="M134 581v86h345v-86h-345zM307 -12q-116 0 -199 79.5t-83 191.5t83 191t199 79t199 -79t83 -191t-83 -191.5t-199 -79.5zM307 111q58 0 100 43.5t42 104.5t-41.5 104t-100.5 43t-100.5 -43t-41.5 -104t42 -104.5t100 -43.5z" />
    <glyph glyph-name="Ohungarumlaut" unicode="&#x150;" horiz-adv-x="802" 
d="M235 744l115 157l131 -24l-148 -133h-98zM469 744l116 156l131 -24l-148 -132h-99zM401 -12q-148 0 -256.5 105.5t-108.5 250.5t108 250t257 105t257 -105t108 -250t-108.5 -250.5t-256.5 -105.5zM401 122q87 0 150 66t63 156q0 89 -63 155t-150 66q-86 0 -149.5 -66
t-63.5 -155q0 -90 63.5 -156t149.5 -66z" />
    <glyph glyph-name="ohungarumlaut" unicode="&#x151;" horiz-adv-x="614" 
d="M141 574l115 157l131 -24l-148 -133h-98zM375 574l116 156l131 -24l-148 -132h-99zM307 -12q-116 0 -199 79.5t-83 191.5t83 191t199 79t199 -79t83 -191t-83 -191.5t-199 -79.5zM307 111q58 0 100 43.5t42 104.5t-41.5 104t-100.5 43t-100.5 -43t-41.5 -104t42 -104.5
t100 -43.5z" />
    <glyph glyph-name="OE" unicode="&#x152;" horiz-adv-x="1044" 
d="M35 340q0 144 108.5 245.5t257.5 101.5h589v-133h-381v-137h345v-133h-345v-151h381v-133h-589q-150 0 -258 98.5t-108 241.5zM187 340q0 -89 62.5 -147.5t151.5 -58.5h60v419h-60q-88 0 -151 -62t-63 -151z" />
    <glyph glyph-name="oe" unicode="&#x153;" horiz-adv-x="998" 
d="M720 101q78 0 134 51l82 -84q-34 -36 -93.5 -58t-117.5 -22q-131 0 -210 95q-80 -95 -208 -95q-116 0 -199 80t-83 192t83 190.5t199 78.5q127 0 207 -93q78 93 203 93q121 0 190.5 -82.5t69.5 -226.5h-387q10 -54 44.5 -86.5t85.5 -32.5zM719 416q-48 0 -82 -29.5
t-45 -79.5h245q-9 50 -40 79.5t-78 29.5zM307 111q58 0 100 44t42 105t-41.5 103.5t-100.5 42.5t-100.5 -42.5t-41.5 -103.5t42 -105t100 -44z" />
    <glyph glyph-name="Racute" unicode="&#x154;" horiz-adv-x="682" 
d="M518 877l-148 -132h-99l116 156zM639 455q0 -80 -47 -138.5t-125 -81.5l165 -235h-168l-157 223h-89v-223h-147v687h309q112 0 185.5 -65t73.5 -167zM218 552v-194h147q54 0 88 26.5t34 70.5t-34 70.5t-88 26.5h-147z" />
    <glyph glyph-name="racute" unicode="&#x155;" horiz-adv-x="401" 
d="M416 707l-148 -132h-99l116 156zM202 420q26 51 72.5 80t104.5 29v-123q-81 0 -129 -43t-48 -116v-247h-146v517h146v-97z" />
    <glyph glyph-name="uni0156" unicode="&#x156;" horiz-adv-x="682" 
d="M639 455q0 -80 -47 -138.5t-125 -81.5l165 -235h-168l-157 223h-89v-223h-147v687h309q112 0 185.5 -65t73.5 -167zM218 552v-194h147q54 0 88 26.5t34 70.5t-34 70.5t-88 26.5h-147zM326 -47q32 0 52.5 -25.5t20.5 -64.5q0 -72 -82 -154l-40 31q38 36 47 74
q-29 0 -48 19.5t-19 49.5t19.5 50t49.5 20z" />
    <glyph glyph-name="uni0157" unicode="&#x157;" horiz-adv-x="401" 
d="M202 420q26 51 72.5 80t104.5 29v-123q-81 0 -129 -43t-48 -116v-247h-146v517h146v-97zM220 -47q32 0 52.5 -25.5t20.5 -64.5q0 -72 -82 -154l-40 31q38 36 47 74q-29 0 -48 19.5t-19 49.5t19.5 50t49.5 20z" />
    <glyph glyph-name="Rcaron" unicode="&#x158;" horiz-adv-x="682" 
d="M383 745h-121l-104 147h90l75 -75l76 75h91zM639 455q0 -80 -47 -138.5t-125 -81.5l165 -235h-168l-157 223h-89v-223h-147v687h309q112 0 185.5 -65t73.5 -167zM218 552v-194h147q54 0 88 26.5t34 70.5t-34 70.5t-88 26.5h-147z" />
    <glyph glyph-name="rcaron" unicode="&#x159;" horiz-adv-x="401" 
d="M280 575h-121l-104 147h90l75 -75l76 75h91zM202 420q26 51 72.5 80t104.5 29v-123q-81 0 -129 -43t-48 -116v-247h-146v517h146v-97z" />
    <glyph glyph-name="Sacute" unicode="&#x15a;" horiz-adv-x="635" 
d="M266 745l116 156l131 -24l-148 -132h-99zM333 -12q-182 0 -305 114l85 101q104 -90 226 -90q54 0 83 21.5t29 55.5q0 35 -30.5 52t-114.5 36q-61 14 -101 28t-76 37.5t-53.5 58.5t-17.5 83q0 95 70.5 154.5t183.5 59.5q158 0 269 -95l-77 -106q-95 76 -196 76
q-46 0 -73.5 -21t-27.5 -53q0 -36 31 -53.5t116 -36.5q124 -28 185 -71.5t61 -132.5q0 -99 -71 -158.5t-196 -59.5z" />
    <glyph glyph-name="sacute" unicode="&#x15b;" horiz-adv-x="491" 
d="M196 575l116 156l131 -24l-148 -132h-99zM254 -12q-135 0 -233 78l59 92q90 -63 177 -63q75 0 75 48q0 23 -24.5 36t-73.5 25q-47 11 -76 21.5t-57.5 28t-42 44t-13.5 63.5q0 74 55.5 121t146.5 47q106 0 204 -64l-54 -94q-81 53 -150 53q-30 0 -49.5 -13.5t-19.5 -34.5
q0 -19 19.5 -29t78.5 -26q43 -11 69 -20.5t57.5 -28t47 -48t15.5 -69.5q0 -76 -57.5 -121.5t-153.5 -45.5z" />
    <glyph glyph-name="Scedilla" unicode="&#x15e;" horiz-adv-x="635" 
d="M600 206q0 -96 -66.5 -155t-184.5 -63l-13 -31h1q32 0 53 -19t21 -49q0 -39 -30.5 -62.5t-77.5 -23.5q-55 0 -95 29l27 58q28 -23 60 -23q18 0 30 8.5t12 21.5q0 27 -32 27q-18 0 -30 -9l-22 21l24 55q-147 17 -249 111l85 101q104 -90 226 -90q54 0 83 21.5t29 55.5
q0 35 -30.5 52t-114.5 36q-61 14 -101 28t-76 37.5t-53.5 58.5t-17.5 83q0 95 70.5 154.5t183.5 59.5q158 0 269 -95l-77 -106q-95 76 -196 76q-46 0 -73.5 -21t-27.5 -53q0 -36 31 -53.5t116 -36.5q124 -28 185 -71.5t61 -132.5z" />
    <glyph glyph-name="scedilla" unicode="&#x15f;" horiz-adv-x="491" 
d="M465 155q0 -71 -50.5 -115.5t-135.5 -50.5l-14 -32h1q32 0 53 -19t21 -49q0 -39 -30.5 -62.5t-77.5 -23.5q-55 0 -95 29l27 58q28 -23 60 -23q18 0 30 8.5t12 21.5q0 27 -32 27q-18 0 -30 -9l-22 21l24 55q-108 14 -185 75l59 92q90 -63 177 -63q75 0 75 48
q0 23 -24.5 36t-73.5 25q-47 11 -76 21.5t-57.5 28t-42 44t-13.5 63.5q0 74 55.5 121t146.5 47q106 0 204 -64l-54 -94q-81 53 -150 53q-30 0 -49.5 -13.5t-19.5 -34.5q0 -19 19.5 -29t78.5 -26q43 -11 69 -20.5t57.5 -28t47 -48t15.5 -69.5z" />
    <glyph glyph-name="Scaron" unicode="&#x160;" horiz-adv-x="635" 
d="M257 745l-104 147h90l75 -75l76 75h91l-107 -147h-121zM333 -12q-182 0 -305 114l85 101q104 -90 226 -90q54 0 83 21.5t29 55.5q0 35 -30.5 52t-114.5 36q-61 14 -101 28t-76 37.5t-53.5 58.5t-17.5 83q0 95 70.5 154.5t183.5 59.5q158 0 269 -95l-77 -106
q-95 76 -196 76q-46 0 -73.5 -21t-27.5 -53q0 -36 31 -53.5t116 -36.5q124 -28 185 -71.5t61 -132.5q0 -99 -71 -158.5t-196 -59.5z" />
    <glyph glyph-name="scaron" unicode="&#x161;" horiz-adv-x="491" 
d="M186 575l-104 147h90l75 -75l76 75h91l-107 -147h-121zM254 -12q-135 0 -233 78l59 92q90 -63 177 -63q75 0 75 48q0 23 -24.5 36t-73.5 25q-47 11 -76 21.5t-57.5 28t-42 44t-13.5 63.5q0 74 55.5 121t146.5 47q106 0 204 -64l-54 -94q-81 53 -150 53q-30 0 -49.5 -13.5
t-19.5 -34.5q0 -19 19.5 -29t78.5 -26q43 -11 69 -20.5t57.5 -28t47 -48t15.5 -69.5q0 -76 -57.5 -121.5t-153.5 -45.5z" />
    <glyph glyph-name="uni0162" unicode="&#x162;" horiz-adv-x="639" 
d="M393 0h-37l-18 -43h1q32 0 53 -19t21 -49q0 -39 -30.5 -62.5t-77.5 -23.5q-55 0 -95 29l27 58q28 -23 60 -23q18 0 30 8.5t12 21.5q0 27 -32 27q-18 0 -30 -9l-22 21l27 64h-36v554h-214v133h576v-133h-215v-554z" />
    <glyph glyph-name="uni0163" unicode="&#x163;" horiz-adv-x="395" 
d="M272 -43q32 0 53 -19t21 -49q0 -39 -30.5 -62.5t-77.5 -23.5q-55 0 -95 29l27 58q28 -23 60 -23q18 0 30 8.5t12 21.5q0 27 -32 27q-18 0 -30 -9l-22 21l24 56q-54 12 -85.5 53.5t-31.5 100.5v253h-71v118h71v142h141v-142h112v-118h-112v-230q0 -25 14 -41.5t35 -16.5
q32 0 49 17l35 -95q-33 -30 -83 -41l-15 -35h1z" />
    <glyph glyph-name="Tcaron" unicode="&#x164;" horiz-adv-x="639" 
d="M259 745l-104 147h90l75 -75l76 75h91l-107 -147h-121zM246 0v554h-214v133h576v-133h-215v-554h-147z" />
    <glyph glyph-name="tcaron" unicode="&#x165;" horiz-adv-x="548" 
d="M470 699q33 0 53 -26.5t20 -69.5q0 -67 -81 -148l-41 31q38 36 47 73q-29 0 -47.5 20t-18.5 50t19.5 50t48.5 20zM285 111q32 0 49 17l35 -95q-50 -45 -118 -45q-69 0 -112.5 44t-43.5 114v253h-71v118h71v142h141v-142h112v-118h-112v-230q0 -25 14 -41.5t35 -16.5z" />
    <glyph glyph-name="Umacron" unicode="&#x16a;" horiz-adv-x="734" 
d="M194 751v86h345v-86h-345zM367 -12q-137 0 -224 86.5t-87 222.5v390h148v-384q0 -80 45.5 -130.5t117.5 -50.5t117.5 50.5t45.5 130.5v384h148v-390q0 -136 -87 -222.5t-224 -86.5z" />
    <glyph glyph-name="umacron" unicode="&#x16b;" horiz-adv-x="595" 
d="M459 667v-86h-345v86h345zM394 517h145v-517h-145v64q-24 -35 -65 -55.5t-91 -20.5q-85 0 -138.5 56t-53.5 144v329h141v-298q0 -48 27 -78t71 -30q46 0 77.5 29t31.5 71v306z" />
    <glyph glyph-name="Uring" unicode="&#x16e;" horiz-adv-x="734" 
d="M367 751q-47 0 -80.5 33t-33.5 80t33.5 80.5t80.5 33.5t80.5 -33.5t33.5 -80.5t-33.5 -80t-80.5 -33zM367 811q22 0 37.5 15.5t15.5 37.5t-15.5 37.5t-37.5 15.5t-37.5 -15.5t-15.5 -37.5t15.5 -37.5t37.5 -15.5zM367 -12q-137 0 -224 86.5t-87 222.5v390h148v-384
q0 -80 45.5 -130.5t117.5 -50.5t117.5 50.5t45.5 130.5v384h148v-390q0 -136 -87 -222.5t-224 -86.5z" />
    <glyph glyph-name="uring" unicode="&#x16f;" horiz-adv-x="595" 
d="M287 581q-47 0 -80.5 33t-33.5 80t33.5 80.5t80.5 33.5t80.5 -33.5t33.5 -80.5t-33.5 -80t-80.5 -33zM287 747q-22 0 -37.5 -15.5t-15.5 -37.5t15.5 -37.5t37.5 -15.5t37.5 15.5t15.5 37.5t-15.5 37.5t-37.5 15.5zM394 517h145v-517h-145v64q-24 -35 -65 -55.5t-91 -20.5
q-85 0 -138.5 56t-53.5 144v329h141v-298q0 -48 27 -78t71 -30q46 0 77.5 29t31.5 71v306z" />
    <glyph glyph-name="Uhungarumlaut" unicode="&#x170;" horiz-adv-x="734" 
d="M200 744l115 157l131 -24l-148 -133h-98zM434 744l116 156l131 -24l-148 -132h-99zM367 -12q-137 0 -224 86.5t-87 222.5v390h148v-384q0 -80 45.5 -130.5t117.5 -50.5t117.5 50.5t45.5 130.5v384h148v-390q0 -136 -87 -222.5t-224 -86.5z" />
    <glyph glyph-name="uhungarumlaut" unicode="&#x171;" horiz-adv-x="595" 
d="M366 707l-148 -133h-98l115 157zM453 574h-99l116 156l131 -24zM394 211v306h145v-517h-145v64q-24 -35 -65 -55.5t-91 -20.5q-85 0 -138.5 56t-53.5 144v329h141v-298q0 -48 27 -78t71 -30q46 0 77.5 29t31.5 71z" />
    <glyph glyph-name="Uogonek" unicode="&#x172;" horiz-adv-x="734" 
d="M530 687h148v-390q0 -136 -87 -222.5t-224 -86.5q-20 0 -33 -12.5t-13 -31.5q0 -41 47 -41q22 0 37 13l26 -68q-38 -33 -90 -33q-49 0 -80 30t-31 81q0 48 32 77q-94 30 -150 108.5t-56 185.5v390h148v-384q0 -80 45.5 -130.5t117.5 -50.5t117.5 50.5t45.5 130.5v384z
" />
    <glyph glyph-name="uogonek" unicode="&#x173;" horiz-adv-x="595" 
d="M577 -72l26 -68q-38 -33 -90 -33q-49 0 -80 30t-31 81q0 35 19 62h-27v64q-24 -35 -65 -55.5t-91 -20.5q-85 0 -138.5 56t-53.5 144v329h141v-298q0 -48 27 -78t71 -30q46 0 77.5 29t31.5 71v306h145v-517q-20 0 -33 -12.5t-13 -31.5q0 -41 47 -41q22 0 37 13z" />
    <glyph glyph-name="Wcircumflex" unicode="&#x174;" horiz-adv-x="1093" 
d="M383 745l104 147h121l107 -147h-91l-76 74l-75 -74h-90zM236 0l-209 687h161l126 -461l153 461h160l152 -461l126 461h161l-208 -687h-148l-163 472l-163 -472h-148z" />
    <glyph glyph-name="wcircumflex" unicode="&#x175;" horiz-adv-x="839" 
d="M255 575l104 147h121l107 -147h-91l-76 74l-75 -74h-90zM192 0l-176 517h143l98 -322l102 322h121l103 -322l97 322h143l-175 -517h-131l-97 325l-97 -325h-131z" />
    <glyph glyph-name="Ycircumflex" unicode="&#x176;" horiz-adv-x="732" 
d="M202 745l104 147h121l107 -147h-91l-76 74l-75 -74h-90zM292 0v248l-269 439h172l171 -301l178 301h165l-268 -439v-248h-149z" />
    <glyph glyph-name="ycircumflex" unicode="&#x177;" horiz-adv-x="596" 
d="M139 575l104 147h121l107 -147h-91l-76 74l-75 -74h-90zM183 -180q-70 0 -129 32l31 100q39 -23 68 -23q44 0 65 36l14 30l-215 522h151l136 -363l128 363h149l-211 -543q-61 -154 -187 -154z" />
    <glyph glyph-name="Ydieresis" unicode="&#x178;" horiz-adv-x="732" 
d="M261 754q-30 0 -50.5 20.5t-20.5 49.5t20.5 49.5t50.5 20.5q29 0 49.5 -21t20.5 -49t-20.5 -49t-49.5 -21zM473 754q-30 0 -50.5 20.5t-20.5 49.5t20.5 49.5t50.5 20.5q29 0 49.5 -21t20.5 -49t-20.5 -49t-49.5 -21zM292 0v248l-269 439h172l171 -301l178 301h165
l-268 -439v-248h-149z" />
    <glyph glyph-name="Zacute" unicode="&#x179;" horiz-adv-x="657" 
d="M280 745l116 156l131 -24l-148 -132h-99zM45 0l-1 112l361 442h-353v133h556v-112l-361 -442h365v-133h-567z" />
    <glyph glyph-name="zacute" unicode="&#x17a;" horiz-adv-x="526" 
d="M217 575l116 156l131 -24l-148 -132h-99zM36 0v103l260 290h-253v124h443l-1 -103l-259 -290h262v-124h-452z" />
    <glyph glyph-name="Zdotaccent" unicode="&#x17b;" horiz-adv-x="657" 
d="M332 754q-30 0 -50.5 20.5t-20.5 49.5t20.5 49.5t50.5 20.5q28 0 49 -21t21 -49t-21 -49t-49 -21zM45 0l-1 112l361 442h-353v133h556v-112l-361 -442h365v-133h-567z" />
    <glyph glyph-name="zdotaccent" unicode="&#x17c;" horiz-adv-x="526" 
d="M268 584q-30 0 -50.5 20.5t-20.5 49.5t20.5 49.5t50.5 20.5q28 0 49 -21t21 -49t-21 -49t-49 -21zM36 0v103l260 290h-253v124h443l-1 -103l-259 -290h262v-124h-452z" />
    <glyph glyph-name="Zcaron" unicode="&#x17d;" horiz-adv-x="657" 
d="M271 745l-104 147h90l75 -75l76 75h91l-107 -147h-121zM45 0l-1 112l361 442h-353v133h556v-112l-361 -442h365v-133h-567z" />
    <glyph glyph-name="zcaron" unicode="&#x17e;" horiz-adv-x="526" 
d="M207 575l-104 147h90l75 -75l76 75h91l-107 -147h-121zM36 0v103l260 290h-253v124h443l-1 -103l-259 -290h262v-124h-452z" />
    <glyph glyph-name="uni0237" unicode="&#x237;" horiz-adv-x="267" 
d="M46 -178q-61 0 -103 21l15 108q25 -9 54 -9q22 0 35.5 16t13.5 42v517h146v-532q0 -71 -45.5 -117t-115.5 -46z" />
    <glyph glyph-name="circumflex" unicode="&#x2c6;" horiz-adv-x="371" 
d="M20 575l104 147h121l107 -147h-91l-76 74l-75 -74h-90z" />
    <glyph glyph-name="caron" unicode="&#x2c7;" horiz-adv-x="371" 
d="M124 575l-104 147h90l75 -75l76 75h91l-107 -147h-121z" />
    <glyph glyph-name="breve" unicode="&#x2d8;" horiz-adv-x="357" 
d="M178 581q-94 0 -161 66l63 63q44 -42 98 -42t98 42l63 -63q-66 -66 -161 -66z" />
    <glyph glyph-name="dotaccent" unicode="&#x2d9;" horiz-adv-x="197" 
d="M99 584q-30 0 -50.5 20.5t-20.5 49.5t20.5 49.5t50.5 20.5q29 0 49.5 -21t20.5 -49t-20.5 -49t-49.5 -21z" />
    <glyph glyph-name="ring" unicode="&#x2da;" horiz-adv-x="283" 
d="M141 581q-47 0 -80.5 33t-33.5 80t33.5 80.5t80.5 33.5t80.5 -33.5t33.5 -80.5t-33.5 -80t-80.5 -33zM141 641q22 0 37.5 15.5t15.5 37.5t-15.5 37.5t-37.5 15.5t-37.5 -15.5t-15.5 -37.5t15.5 -37.5t37.5 -15.5z" />
    <glyph glyph-name="ogonek" unicode="&#x2db;" horiz-adv-x="251" 
d="M140 -173q-49 0 -80 30t-31 81q0 62 52 92l85 -30q-20 0 -33 -12.5t-13 -31.5q0 -41 47 -41q22 0 37 13l26 -68q-38 -33 -90 -33z" />
    <glyph glyph-name="tilde" unicode="&#x2dc;" horiz-adv-x="412" 
d="M273 573q-31 0 -74 25.5t-57 25.5q-32 0 -42 -53l-73 11q17 132 111 132q31 0 75 -25.5t57 -25.5q32 0 42 52l72 -10q-15 -132 -111 -132z" />
    <glyph glyph-name="hungarumlaut" unicode="&#x2dd;" horiz-adv-x="518" 
d="M20 574l115 157l131 -24l-148 -133h-98zM254 574l116 156l131 -24l-148 -132h-99z" />
    <glyph glyph-name="uni0307" unicode="&#x307;" horiz-adv-x="0" 
d="M-107 588q-34 0 -57 23.5t-23 56.5q0 31 23.5 54.5t56.5 23.5q32 0 55.5 -23.5t23.5 -54.5q0 -33 -23.5 -56.5t-55.5 -23.5z" />
    <glyph glyph-name="uni0326" unicode="&#x326;" horiz-adv-x="0" 
d="M-110 -291l-40 31q38 36 47 74q-29 0 -48 19.5t-19 49.5t19.5 50t49.5 20q32 0 52.5 -25.5t20.5 -64.5q0 -72 -82 -154z" />
    <glyph glyph-name="Wgrave" unicode="&#x1e80;" horiz-adv-x="1093" 
d="M500 745l-148 132l131 24l116 -156h-99zM236 0l-209 687h161l126 -461l153 461h160l152 -461l126 461h161l-208 -687h-148l-163 472l-163 -472h-148z" />
    <glyph glyph-name="wgrave" unicode="&#x1e81;" horiz-adv-x="839" 
d="M373 575l-148 132l131 24l116 -156h-99zM192 0l-176 517h143l98 -322l102 322h121l103 -322l97 322h143l-175 -517h-131l-97 325l-97 -325h-131z" />
    <glyph glyph-name="Wacute" unicode="&#x1e82;" horiz-adv-x="1093" 
d="M496 745l116 156l131 -24l-148 -132h-99zM236 0l-209 687h161l126 -461l153 461h160l152 -461l126 461h161l-208 -687h-148l-163 472l-163 -472h-148z" />
    <glyph glyph-name="wacute" unicode="&#x1e83;" horiz-adv-x="839" 
d="M369 575l116 156l131 -24l-148 -132h-99zM192 0l-176 517h143l98 -322l102 322h121l103 -322l97 322h143l-175 -517h-131l-97 325l-97 -325h-131z" />
    <glyph glyph-name="Wdieresis" unicode="&#x1e84;" horiz-adv-x="1093" 
d="M442 754q-30 0 -50.5 20.5t-20.5 49.5t20.5 49.5t50.5 20.5q28 0 49 -21t21 -49t-21 -49t-49 -21zM654 754q-30 0 -50.5 20.5t-20.5 49.5t20.5 49.5t50.5 20.5q28 0 49 -21t21 -49t-21 -49t-49 -21zM236 0l-209 687h161l126 -461l153 461h160l152 -461l126 461h161
l-208 -687h-148l-163 472l-163 -472h-148z" />
    <glyph glyph-name="wdieresis" unicode="&#x1e85;" horiz-adv-x="839" 
d="M314 584q-30 0 -50.5 20.5t-20.5 49.5t20.5 49.5t50.5 20.5q28 0 49 -21t21 -49t-21 -49t-49 -21zM526 584q-30 0 -50.5 20.5t-20.5 49.5t20.5 49.5t50.5 20.5q28 0 49 -21t21 -49t-21 -49t-49 -21zM192 0l-176 517h143l98 -322l102 322h121l103 -322l97 322h143
l-175 -517h-131l-97 325l-97 -325h-131z" />
    <glyph glyph-name="uni1EB8" unicode="&#x1eb8;" horiz-adv-x="653" 
d="M599 554h-381v-137h346v-133h-346v-151h381v-133h-529v687h529v-133zM324 -70q29 0 49.5 -21t20.5 -49q0 -29 -20.5 -50t-49.5 -21q-30 0 -50 20.5t-20 50.5q0 28 20.5 49t49.5 21z" />
    <glyph glyph-name="uni1EB9" unicode="&#x1eb9;" horiz-adv-x="585" 
d="M298 101q35 0 72 14t62 37l82 -84q-34 -36 -93.5 -58t-117.5 -22q-117 0 -197 77t-80 195q0 116 77.5 192.5t191.5 76.5q121 0 190.5 -82.5t69.5 -226.5h-390q10 -54 45.5 -86.5t87.5 -32.5zM296 416q-48 0 -83 -29.5t-47 -79.5h249q-9 50 -40 79.5t-79 29.5zM264 -71
q28 0 49 -21t21 -49q0 -29 -20.5 -49.5t-49.5 -20.5q-30 0 -50.5 20.5t-20.5 49.5q0 28 20.5 49t50.5 21z" />
    <glyph glyph-name="uni1EBC" unicode="&#x1ebc;" horiz-adv-x="654" 
d="M271 794q-32 0 -42 -53l-73 11q17 132 111 132q31 0 75 -25.5t57 -25.5q32 0 42 52l72 -10q-15 -132 -111 -132q-31 0 -74 25.5t-57 25.5zM600 554h-381v-137h345v-133h-345v-151h381v-133h-529v687h529v-133z" />
    <glyph glyph-name="uni1EBD" unicode="&#x1ebd;" horiz-adv-x="576" 
d="M231 624q-32 0 -42 -53l-73 11q17 132 111 132q31 0 75 -25.5t57 -25.5q32 0 42 52l72 -10q-15 -132 -111 -132q-31 0 -74 25.5t-57 25.5zM298 101q35 0 72 14t62 37l82 -84q-34 -36 -93.5 -58t-117.5 -22q-117 0 -197 77t-80 195q0 116 77.5 192.5t191.5 76.5
q121 0 190.5 -82.5t69.5 -226.5h-390q10 -54 45.5 -86.5t87.5 -32.5zM296 416q-48 0 -83 -29.5t-47 -79.5h249q-9 50 -40 79.5t-79 29.5z" />
    <glyph glyph-name="Ygrave" unicode="&#x1ef2;" horiz-adv-x="732" 
d="M319 745l-148 132l131 24l116 -156h-99zM292 0v248l-269 439h172l171 -301l178 301h165l-268 -439v-248h-149z" />
    <glyph glyph-name="ygrave" unicode="&#x1ef3;" horiz-adv-x="596" 
d="M257 575l-148 132l131 24l116 -156h-99zM183 -180q-70 0 -129 32l31 100q39 -23 68 -23q44 0 65 36l14 30l-215 522h151l136 -363l128 363h149l-211 -543q-61 -154 -187 -154z" />
    <glyph glyph-name="uni2002" unicode="&#x2002;" horiz-adv-x="500" 
 />
    <glyph glyph-name="uni2003" unicode="&#x2003;" horiz-adv-x="1000" 
 />
    <glyph glyph-name="uni2004" unicode="&#x2004;" horiz-adv-x="333" 
 />
    <glyph glyph-name="uni2005" unicode="&#x2005;" horiz-adv-x="250" 
 />
    <glyph glyph-name="uni2006" unicode="&#x2006;" horiz-adv-x="166" 
 />
    <glyph glyph-name="endash" unicode="&#x2013;" horiz-adv-x="569" 
d="M44 214v122h481v-122h-481z" />
    <glyph glyph-name="emdash" unicode="&#x2014;" horiz-adv-x="874" 
d="M44 214v122h786v-122h-786z" />
    <glyph glyph-name="quoteleft" unicode="&#x2018;" horiz-adv-x="282" 
d="M156 692l52 -40q-47 -44 -61 -95q36 0 62 -26.5t26 -63.5t-26.5 -64t-63.5 -27q-42 0 -68.5 35t-26.5 89q0 89 106 192z" />
    <glyph glyph-name="quoteright" unicode="&#x2019;" horiz-adv-x="281" 
d="M125 377l-52 40q47 44 61 94q-36 0 -62 27t-26 64t26.5 64t63.5 27q42 0 68.5 -35t26.5 -89q0 -89 -106 -192z" />
    <glyph glyph-name="quotesinglbase" unicode="&#x201a;" horiz-adv-x="281" 
d="M125 -146l-52 40q46 42 61 94q-36 0 -62 26.5t-26 63.5q0 38 26.5 65t63.5 27q42 0 68.5 -35t26.5 -90q0 -89 -106 -191z" />
    <glyph glyph-name="quotedblleft" unicode="&#x201c;" horiz-adv-x="542" 
d="M156 692l52 -40q-47 -44 -61 -95q36 0 62 -26.5t26 -63.5t-26.5 -64t-63.5 -27q-42 0 -68.5 35t-26.5 89q0 89 106 192zM416 692l52 -40q-47 -44 -61 -95q36 0 62 -26.5t26 -63.5t-26.5 -64t-63.5 -27q-42 0 -68.5 35t-26.5 89q0 89 106 192z" />
    <glyph glyph-name="quotedblright" unicode="&#x201d;" horiz-adv-x="542" 
d="M125 377l-52 40q47 44 61 94q-36 0 -62 27t-26 64t26.5 64t63.5 27q42 0 68.5 -35t26.5 -89q0 -89 -106 -192zM386 377l-53 40q48 44 61 94q-36 0 -61.5 26.5t-25.5 64.5q0 37 26.5 64t63.5 27q42 0 68.5 -35t26.5 -89q0 -87 -106 -192z" />
    <glyph glyph-name="quotedblbase" unicode="&#x201e;" horiz-adv-x="542" 
d="M125 -146l-52 40q46 42 61 94q-36 0 -62 26.5t-26 63.5q0 38 26.5 65t63.5 27q42 0 68.5 -35t26.5 -90q0 -89 -106 -191zM386 -146l-53 40q48 42 61 94q-36 0 -61.5 26.5t-25.5 63.5q0 38 26.5 65t63.5 27q42 0 68.5 -35t26.5 -90q0 -88 -106 -191z" />
    <glyph glyph-name="bullet" unicode="&#x2022;" horiz-adv-x="373" 
d="M187 160q-57 0 -97.5 40.5t-40.5 97.5q0 56 40.5 96.5t97.5 40.5q56 0 96.5 -40.5t40.5 -96.5q0 -57 -40.5 -97.5t-96.5 -40.5z" />
    <glyph glyph-name="ellipsis" unicode="&#x2026;" horiz-adv-x="802" 
d="M142 -12q-39 0 -65.5 27t-26.5 66q0 36 27 62.5t65 26.5q36 0 62.5 -26.5t26.5 -62.5q0 -38 -26 -65.5t-63 -27.5zM402 -12q-39 0 -65.5 27t-26.5 66q0 36 27 62.5t65 26.5q36 0 62.5 -26.5t26.5 -62.5q0 -38 -26 -65.5t-63 -27.5zM662 -12q-39 0 -65.5 27t-26.5 66
q0 36 27 62.5t65 26.5q36 0 62.5 -26.5t26.5 -62.5q0 -38 -26 -65.5t-63 -27.5z" />
    <glyph glyph-name="uni202F" unicode="&#x202f;" horiz-adv-x="272" 
 />
    <glyph glyph-name="perthousand" unicode="&#x2030;" horiz-adv-x="1258" 
d="M222 342q-75 0 -123 50t-48 125t48 126t124 51t123.5 -50.5t47.5 -125.5t-48 -125.5t-124 -50.5zM141 0l478 687h116l-478 -687h-116zM223 428q32 0 52.5 24.5t20.5 65.5q0 40 -21 64.5t-53 24.5t-52 -24.5t-20 -64.5t21 -65t52 -25zM652 -11q-76 0 -124 50.5t-48 125.5
t48.5 125.5t123.5 50.5q76 0 123.5 -51t47.5 -125q0 -75 -48.5 -125.5t-122.5 -50.5zM1035 -11q-75 0 -123.5 50.5t-48.5 125.5t48.5 125.5t123.5 50.5q76 0 123.5 -50.5t47.5 -125.5t-48 -125.5t-123 -50.5zM652 76q32 0 52.5 24.5t20.5 64.5t-21 65t-52 25
q-33 0 -53.5 -24.5t-20.5 -65.5q0 -40 21 -64.5t53 -24.5zM1035 76q32 0 52.5 24.5t20.5 64.5t-21 65t-52 25q-33 0 -53 -24.5t-20 -65.5q0 -39 20.5 -64t52.5 -25z" />
    <glyph glyph-name="guilsinglleft" unicode="&#x2039;" horiz-adv-x="358" 
d="M200 50l-165 204l165 202l115 -24l-142 -178l142 -179z" />
    <glyph glyph-name="guilsinglright" unicode="&#x203a;" horiz-adv-x="358" 
d="M158 50l-115 25l142 179l-142 178l115 24l165 -202z" />
    <glyph glyph-name="Euro" unicode="&#x20ac;" horiz-adv-x="807" 
d="M483 122q93 0 160 77l106 -96q-110 -115 -266 -115q-120 0 -217.5 72t-131.5 183h-68v73h53q-1 9 -1 28q0 14 2 40h-54v73h72q37 106 132.5 174t212.5 68q157 0 266 -115l-107 -96q-65 77 -159 77q-56 0 -104.5 -29.5t-77.5 -78.5h243v-73h-270q-4 -17 -4 -40
q0 -10 2 -28h272v-73h-250q27 -54 78.5 -87.5t110.5 -33.5z" />
    <glyph glyph-name="trademark" unicode="&#x2122;" horiz-adv-x="773" 
d="M139 280v219h-82v81h252v-81h-82v-219h-88zM348 280v300h89l81 -134l80 134h89v-300h-89v151l-80 -134l-81 134v-151h-89z" />
    <glyph glyph-name="minus" unicode="&#x2212;" horiz-adv-x="636" 
d="M76 274v119h483v-119h-483z" />
    <glyph glyph-name="a.alt" horiz-adv-x="642" 
d="M440 517h146v-517h-146v73q-65 -85 -174 -85q-104 0 -170.5 75.5t-66.5 195.5q0 119 66.5 194.5t170.5 75.5q109 0 174 -85v73zM308 111q58 0 95 41.5t37 106.5t-36.5 106t-95.5 41q-61 0 -99 -41t-38 -106t38 -106.5t99 -41.5z" />
    <glyph glyph-name="aacute.alt" horiz-adv-x="642" 
d="M514 707l-148 -132h-99l116 156zM440 517h146v-517h-146v73q-65 -85 -174 -85q-104 0 -170.5 75.5t-66.5 195.5q0 119 66.5 194.5t170.5 75.5q109 0 174 -85v73zM308 111q58 0 95 41.5t37 106.5t-36.5 106t-95.5 41q-61 0 -99 -41t-38 -106t38 -106.5t99 -41.5z" />
    <glyph glyph-name="abreve.alt" horiz-adv-x="642" 
d="M479 647q-66 -66 -161 -66q-93 0 -161 66l63 63q44 -42 98 -42t98 42zM440 517h146v-517h-146v73q-65 -85 -174 -85q-104 0 -170.5 75.5t-66.5 195.5q0 119 66.5 194.5t170.5 75.5q109 0 174 -85v73zM308 111q58 0 95 41.5t37 106.5t-36.5 106t-95.5 41q-61 0 -99 -41
t-38 -106t38 -106.5t99 -41.5z" />
    <glyph glyph-name="acircumflex.alt" horiz-adv-x="642" 
d="M319 649l-75 -74h-90l104 147h121l107 -147h-91zM440 517h146v-517h-146v73q-65 -85 -174 -85q-104 0 -170.5 75.5t-66.5 195.5q0 119 66.5 194.5t170.5 75.5q109 0 174 -85v73zM308 111q58 0 95 41.5t37 106.5t-36.5 106t-95.5 41q-61 0 -99 -41t-38 -106t38 -106.5
t99 -41.5z" />
    <glyph glyph-name="adieresis.alt" horiz-adv-x="642" 
d="M213 584q-30 0 -50.5 20.5t-20.5 49.5t20.5 49.5t50.5 20.5q29 0 49.5 -21t20.5 -49t-20.5 -49t-49.5 -21zM425 584q-30 0 -50.5 20.5t-20.5 49.5t20.5 49.5t50.5 20.5q29 0 49.5 -21t20.5 -49t-20.5 -49t-49.5 -21zM440 517h146v-517h-146v73q-65 -85 -174 -85
q-104 0 -170.5 75.5t-66.5 195.5q0 119 66.5 194.5t170.5 75.5q109 0 174 -85v73zM308 111q58 0 95 41.5t37 106.5t-36.5 106t-95.5 41q-61 0 -99 -41t-38 -106t38 -106.5t99 -41.5z" />
    <glyph glyph-name="agrave.alt" horiz-adv-x="642" 
d="M370 575h-99l-148 132l131 24zM440 517h146v-517h-146v73q-65 -85 -174 -85q-104 0 -170.5 75.5t-66.5 195.5q0 119 66.5 194.5t170.5 75.5q109 0 174 -85v73zM308 111q58 0 95 41.5t37 106.5t-36.5 106t-95.5 41q-61 0 -99 -41t-38 -106t38 -106.5t99 -41.5z" />
    <glyph glyph-name="amacron.alt" horiz-adv-x="642" 
d="M490 667v-86h-345v86h345zM440 517h146v-517h-146v73q-65 -85 -174 -85q-104 0 -170.5 75.5t-66.5 195.5q0 119 66.5 194.5t170.5 75.5q109 0 174 -85v73zM308 111q58 0 95 41.5t37 106.5t-36.5 106t-95.5 41q-61 0 -99 -41t-38 -106t38 -106.5t99 -41.5z" />
    <glyph glyph-name="aogonek.alt" horiz-adv-x="642" 
d="M624 -72l26 -68q-38 -33 -90 -33q-49 0 -80 30t-31 81q0 35 19 62h-28v73q-65 -85 -174 -85q-104 0 -170.5 75.5t-66.5 195.5q0 119 66.5 194.5t170.5 75.5q109 0 174 -85v73h146v-517q-20 0 -33 -12.5t-13 -31.5q0 -41 47 -41q22 0 37 13zM308 111q58 0 95 41.5
t37 106.5t-36.5 106t-95.5 41q-61 0 -99 -41t-38 -106t38 -106.5t99 -41.5z" />
    <glyph glyph-name="aring.alt" horiz-adv-x="642" 
d="M318 581q-47 0 -80.5 33t-33.5 80t33.5 80.5t80.5 33.5t80.5 -33.5t33.5 -80.5t-33.5 -80t-80.5 -33zM318 747q-22 0 -37.5 -15.5t-15.5 -37.5t15.5 -37.5t37.5 -15.5t37.5 15.5t15.5 37.5t-15.5 37.5t-37.5 15.5zM440 517h146v-517h-146v73q-65 -85 -174 -85
q-104 0 -170.5 75.5t-66.5 195.5q0 119 66.5 194.5t170.5 75.5q109 0 174 -85v73zM308 111q58 0 95 41.5t37 106.5t-36.5 106t-95.5 41q-61 0 -99 -41t-38 -106t38 -106.5t99 -41.5z" />
    <glyph glyph-name="atilde.alt" horiz-adv-x="642" 
d="M254 624q-32 0 -42 -53l-73 11q17 132 111 132q31 0 75 -25.5t57 -25.5q32 0 42 52l72 -10q-15 -132 -111 -132q-31 0 -74 25.5t-57 25.5zM440 517h146v-517h-146v73q-65 -85 -174 -85q-104 0 -170.5 75.5t-66.5 195.5q0 119 66.5 194.5t170.5 75.5q109 0 174 -85v73z
M308 111q58 0 95 41.5t37 106.5t-36.5 106t-95.5 41q-61 0 -99 -41t-38 -106t38 -106.5t99 -41.5z" />
    </font>
</defs>
</svg>
